solid diseños
facet normal -0.9659258262890712 0.25881904510251025 2.3124936889316377e-15
outer loop
vertex 282.2312050402614 89.83410447447497 12.014747219288619
vertex 282.0513842797531 89.39997875565956 2.314747219288626
vertex 282.0513842797531 89.39997875565952 12.014747219288617
endloop
endfacet
facet normal -0.8660254037844287 0.5000000000000173 2.808321744662259e-15
outer loop
vertex 282.0513842797531 89.39997875565956 2.314747219288626
vertex 282.2312050402614 89.83410447447497 12.014747219288619
vertex 282.23120504026144 89.83410447447501 2.314747219288632
endloop
endfacet
facet normal -0.5000000000000018 0.8660254037844376 3.2050829358785365e-15
outer loop
vertex 281.39253855294106 88.74113302884753 12.014747219288617
vertex 281.7653307590769 89.02718654952378 2.314747219288626
vertex 281.3925385529411 88.74113302884757 2.314747219288626
endloop
endfacet
facet normal -0.7071067811865277 0.7071067811865673 3.1127673144652004e-15
outer loop
vertex 281.7653307590769 89.02718654952378 2.314747219288626
vertex 281.39253855294106 88.74113302884753 12.014747219288617
vertex 281.76533075907685 89.02718654952373 12.014747219288617
endloop
endfacet
facet normal -0.7071067811865593 -0.7071067811865358 -7.664837629300436e-16
outer loop
vertex 281.7653307590769 91.57277096179531 12.014747219288624
vertex 281.3925385529412 91.85882448247156 2.3147472192886376
vertex 281.76533075907696 91.57277096179536 2.3147472192886376
endloop
endfacet
facet normal -0.5000000000000022 -0.8660254037844373 -1.5460099260016148e-15
outer loop
vertex 281.3925385529412 91.85882448247156 2.3147472192886376
vertex 281.7653307590769 91.57277096179531 12.014747219288624
vertex 281.3925385529411 91.8588244824715 12.014747219288624
endloop
endfacet
facet normal -0.500000000000002 -0.8660254037844376 -1.5460099260016164e-15
outer loop
vertex 281.3925385529411 91.8588244824715 12.014747219288624
vertex 280.9584128341257 92.0386452429799 2.3147472192886376
vertex 281.3925385529412 91.85882448247156 2.3147472192886376
endloop
endfacet
facet normal -0.25881904510252945 -0.965925826289066 -2.2201780675183206e-15
outer loop
vertex 280.9584128341257 92.0386452429799 2.3147472192886376
vertex 281.3925385529411 91.8588244824715 12.014747219288624
vertex 280.9584128341256 92.03864524297984 12.014747219288626
endloop
endfacet
facet normal -0.8660254037844513 -0.4999999999999781 6.527700191089038e-17
outer loop
vertex 282.0513842797531 91.19997875565952 12.014747219288623
vertex 282.23120504026144 90.76585303684409 2.3147472192886376
vertex 282.2312050402614 90.76585303684405 12.01474721928862
endloop
endfacet
facet normal -0.9659258262890712 -0.2588190451025098 8.925892469468731e-16
outer loop
vertex 282.23120504026144 90.76585303684409 2.3147472192886376
vertex 282.0513842797531 91.19997875565952 12.014747219288623
vertex 282.0513842797531 91.19997875565956 2.3147472192886376
endloop
endfacet
facet normal -0.2588190451025288 -0.9659258262890662 -2.220178067518322e-15
outer loop
vertex 280.9584128341256 92.03864524297984 12.014747219288626
vertex 280.49253855294114 92.09997875565958 2.3147472192886376
vertex 280.9584128341257 92.0386452429799 2.3147472192886376
endloop
endfacet
facet normal -6.006088069666017e-15 -1.0 -2.7430447427514084e-15
outer loop
vertex 280.49253855294114 92.09997875565958 2.3147472192886376
vertex 280.9584128341256 92.03864524297984 12.014747219288626
vertex 280.4925385529411 92.09997875565954 12.014747219288626
endloop
endfacet
facet normal -5.114977080101318e-15 -1.0 -2.7430447427514104e-15
outer loop
vertex 280.4925385529411 92.09997875565954 12.014747219288626
vertex 280.0266642717566 92.0386452429799 2.3147472192886376
vertex 280.49253855294114 92.09997875565958 2.3147472192886376
endloop
endfacet
facet normal 0.2588190451025233 -0.9659258262890676 -3.0789774518617593e-15
outer loop
vertex 280.0266642717566 92.0386452429799 2.3147472192886376
vertex 280.4925385529411 92.09997875565954 12.014747219288626
vertex 280.02666427175654 92.03864524297985 12.014747219288628
endloop
endfacet
facet normal -0.7071067811865593 -0.7071067811865358 -7.664837629300436e-16
outer loop
vertex 281.7653307590769 91.57277096179531 12.014747219288624
vertex 282.0513842797531 91.19997875565956 2.3147472192886376
vertex 282.0513842797531 91.19997875565952 12.014747219288623
endloop
endfacet
facet normal -0.8660254037844513 -0.49999999999997813 6.52770019108903e-17
outer loop
vertex 282.0513842797531 91.19997875565956 2.3147472192886376
vertex 281.7653307590769 91.57277096179531 12.014747219288624
vertex 281.76533075907696 91.57277096179536 2.3147472192886376
endloop
endfacet
facet normal -1.0 1.2475553853905647e-16 1.6590730098769148e-15
outer loop
vertex 282.2925385529411 90.29997875565951 12.014747219288619
vertex 282.23120504026144 89.83410447447501 2.314747219288632
vertex 282.2312050402614 89.83410447447497 12.014747219288619
endloop
endfacet
facet normal -0.9659258262890712 0.2588190451025101 2.3124936889316377e-15
outer loop
vertex 282.23120504026144 89.83410447447501 2.314747219288632
vertex 282.2925385529411 90.29997875565951 12.014747219288619
vertex 282.29253855294115 90.29997875565955 2.314747219288632
endloop
endfacet
facet normal -0.8660254037844285 0.5000000000000175 2.8083217446622594e-15
outer loop
vertex 282.0513842797531 89.39997875565952 12.014747219288617
vertex 281.7653307590769 89.02718654952378 2.314747219288626
vertex 281.76533075907685 89.02718654952373 12.014747219288617
endloop
endfacet
facet normal -0.7071067811865277 0.7071067811865673 3.1127673144652004e-15
outer loop
vertex 281.7653307590769 89.02718654952378 2.314747219288626
vertex 282.0513842797531 89.39997875565952 12.014747219288617
vertex 282.0513842797531 89.39997875565956 2.314747219288626
endloop
endfacet
facet normal -0.9659258262890712 -0.25881904510250997 8.925892469468725e-16
outer loop
vertex 282.2312050402614 90.76585303684405 12.01474721928862
vertex 282.29253855294115 90.29997875565955 2.314747219288632
vertex 282.2925385529411 90.29997875565951 12.014747219288619
endloop
endfacet
facet normal -1.0 1.2475553853905708e-16 1.659073009876915e-15
outer loop
vertex 282.29253855294115 90.29997875565955 2.314747219288632
vertex 282.2312050402614 90.76585303684405 12.01474721928862
vertex 282.23120504026144 90.76585303684409 2.3147472192886376
endloop
endfacet
facet normal 0.25881904510252435 -0.9659258262890674 -3.0789774518617605e-15
outer loop
vertex 280.02666427175654 92.03864524297985 12.014747219288628
vertex 279.59253855294116 91.85882448247156 2.3147472192886376
vertex 280.0266642717566 92.0386452429799 2.3147472192886376
endloop
endfacet
facet normal 0.5000000000000018 -0.8660254037844376 -3.2050829358785365e-15
outer loop
vertex 279.59253855294116 91.85882448247156 2.3147472192886376
vertex 280.02666427175654 92.03864524297985 12.014747219288628
vertex 279.5925385529411 91.85882448247152 12.014747219288628
endloop
endfacet
facet normal 0.5000000000000026 0.8660254037844372 1.546009926001614e-15
outer loop
vertex 279.59253855294105 88.74113302884754 12.014747219288619
vertex 280.02666427175654 88.56131226833925 2.314747219288632
vertex 279.5925385529411 88.74113302884759 2.314747219288632
endloop
endfacet
facet normal 0.25881904510252896 0.9659258262890662 2.2201780675183218e-15
outer loop
vertex 280.02666427175654 88.56131226833925 2.314747219288632
vertex 279.59253855294105 88.74113302884754 12.014747219288619
vertex 280.02666427175654 88.5613122683392 12.014747219288619
endloop
endfacet
facet normal 0.8660254037844283 -0.5000000000000178 -2.8083217446622598e-15
outer loop
vertex 278.9336928261291 91.19997875565957 2.3147472192886376
vertex 279.2197463468053 91.57277096179531 12.014747219288628
vertex 278.93369282612906 91.19997875565953 12.014747219288628
endloop
endfacet
facet normal 0.7071067811865277 -0.7071067811865673 -3.1127673144652004e-15
outer loop
vertex 279.2197463468053 91.57277096179531 12.014747219288628
vertex 278.9336928261291 91.19997875565957 2.3147472192886376
vertex 279.2197463468054 91.57277096179537 2.3147472192886376
endloop
endfacet
facet normal 0.9659258262890712 -0.2588190451025105 -2.3124936889316385e-15
outer loop
vertex 278.7538720656208 90.76585303684412 2.3147472192886376
vertex 278.93369282612906 91.19997875565953 12.014747219288628
vertex 278.7538720656208 90.76585303684408 12.014747219288626
endloop
endfacet
facet normal 0.8660254037844289 -0.500000000000017 -2.808321744662259e-15
outer loop
vertex 278.93369282612906 91.19997875565953 12.014747219288628
vertex 278.7538720656208 90.76585303684412 2.3147472192886376
vertex 278.9336928261291 91.19997875565957 2.3147472192886376
endloop
endfacet
facet normal 0.7071067811865591 0.707106781186536 7.664837629300443e-16
outer loop
vertex 279.2197463468053 89.02718654952379 2.3147472192886376
vertex 279.59253855294105 88.74113302884754 12.014747219288619
vertex 279.5925385529411 88.74113302884759 2.314747219288632
endloop
endfacet
facet normal 0.5000000000000026 0.8660254037844372 1.546009926001614e-15
outer loop
vertex 279.59253855294105 88.74113302884754 12.014747219288619
vertex 279.2197463468053 89.02718654952379 2.3147472192886376
vertex 279.21974634680527 89.02718654952373 12.01474721928862
endloop
endfacet
facet normal 0.25881904510252957 0.9659258262890659 2.22017806751832e-15
outer loop
vertex 280.02666427175654 88.5613122683392 12.014747219288619
vertex 280.49253855294114 88.49997875565955 2.314747219288632
vertex 280.02666427175654 88.56131226833925 2.314747219288632
endloop
endfacet
facet normal 4.740710464484135e-15 1.0 2.7430447427514108e-15
outer loop
vertex 280.49253855294114 88.49997875565955 2.314747219288632
vertex 280.02666427175654 88.5613122683392 12.014747219288619
vertex 280.4925385529411 88.49997875565951 12.014747219288619
endloop
endfacet
facet normal 0.8660254037844516 0.49999999999997796 -6.527700191089122e-17
outer loop
vertex 278.9336928261291 89.39997875565957 2.3147472192886376
vertex 278.7538720656208 89.834104474475 12.014747219288624
vertex 278.93369282612906 89.39997875565953 12.014747219288623
endloop
endfacet
facet normal 0.9659258262890712 0.25881904510251 -8.925892469468723e-16
outer loop
vertex 278.7538720656208 89.834104474475 12.014747219288624
vertex 278.9336928261291 89.39997875565957 2.3147472192886376
vertex 278.7538720656208 89.83410447447504 2.3147472192886376
endloop
endfacet
facet normal 0.7071067811865591 0.707106781186536 7.664837629300443e-16
outer loop
vertex 279.2197463468053 89.02718654952379 2.3147472192886376
vertex 278.93369282612906 89.39997875565953 12.014747219288623
vertex 279.21974634680527 89.02718654952373 12.01474721928862
endloop
endfacet
facet normal 0.8660254037844515 0.4999999999999779 -6.52770019108911e-17
outer loop
vertex 278.93369282612906 89.39997875565953 12.014747219288623
vertex 279.2197463468053 89.02718654952379 2.3147472192886376
vertex 278.9336928261291 89.39997875565957 2.3147472192886376
endloop
endfacet
facet normal 1.1960209061768662e-15 4.2802457371929024e-15 -1.0
outer loop
vertex 279.19844332742855 95.12960788710488 2.314747219288641
vertex 278.69253855294113 90.29997875565958 2.3147472192886376
vertex 277.99253855294114 94.63010577458176 2.3147472192886376
endloop
endfacet
facet normal 1.1960209061768662e-15 4.2802457371929024e-15 -1.0
outer loop
vertex 278.69253855294113 90.29997875565958 2.3147472192886376
vertex 279.19844332742855 95.12960788710488 2.314747219288641
vertex 278.7538720656208 90.76585303684412 2.3147472192886376
endloop
endfacet
facet normal 1.1960209061768662e-15 4.2802457371929024e-15 -1.0
outer loop
vertex 278.7538720656208 90.76585303684412 2.3147472192886376
vertex 279.19844332742855 95.12960788710488 2.314747219288641
vertex 278.9336928261291 91.19997875565957 2.3147472192886376
endloop
endfacet
facet normal 1.1960209061768662e-15 4.2802457371929024e-15 -1.0
outer loop
vertex 278.9336928261291 91.19997875565957 2.3147472192886376
vertex 279.19844332742855 95.12960788710488 2.314747219288641
vertex 279.2197463468054 91.57277096179537 2.3147472192886376
endloop
endfacet
facet normal 1.1960209061768662e-15 4.2802457371929024e-15 -1.0
outer loop
vertex 279.2197463468054 91.57277096179537 2.3147472192886376
vertex 279.19844332742855 95.12960788710488 2.314747219288641
vertex 280.4925385529412 95.29997875565952 2.314747219288644
endloop
endfacet
facet normal 1.1960209061768662e-15 4.2802457371929024e-15 -1.0
outer loop
vertex 279.2197463468054 91.57277096179537 2.3147472192886376
vertex 280.4925385529412 95.29997875565952 2.314747219288644
vertex 279.59253855294116 91.85882448247156 2.3147472192886376
endloop
endfacet
facet normal 1.1960209061768662e-15 4.2802457371929024e-15 -1.0
outer loop
vertex 279.59253855294116 91.85882448247156 2.3147472192886376
vertex 280.4925385529412 95.29997875565952 2.314747219288644
vertex 280.0266642717566 92.0386452429799 2.3147472192886376
endloop
endfacet
facet normal 1.1960209061768662e-15 4.2802457371929024e-15 -1.0
outer loop
vertex 280.0266642717566 92.0386452429799 2.3147472192886376
vertex 280.4925385529412 95.29997875565952 2.314747219288644
vertex 280.49253855294114 92.09997875565958 2.3147472192886376
endloop
endfacet
facet normal 1.1960209061768662e-15 4.2802457371929024e-15 -1.0
outer loop
vertex 280.49253855294114 92.09997875565958 2.3147472192886376
vertex 280.4925385529412 95.29997875565952 2.314747219288644
vertex 280.9584128341257 92.0386452429799 2.3147472192886376
endloop
endfacet
facet normal 1.1960209061768662e-15 4.2802457371929024e-15 -1.0
outer loop
vertex 280.9584128341257 92.0386452429799 2.3147472192886376
vertex 280.4925385529412 95.29997875565952 2.314747219288644
vertex 281.78663377845373 95.12960788710485 2.3147472192886442
endloop
endfacet
facet normal 1.1960209061768662e-15 4.2802457371929024e-15 -1.0
outer loop
vertex 280.9584128341257 92.0386452429799 2.3147472192886376
vertex 281.78663377845373 95.12960788710485 2.3147472192886442
vertex 281.3925385529412 91.85882448247156 2.3147472192886376
endloop
endfacet
facet normal 1.1960209061768662e-15 4.2802457371929024e-15 -1.0
outer loop
vertex 281.3925385529412 91.85882448247156 2.3147472192886376
vertex 281.78663377845373 95.12960788710485 2.3147472192886442
vertex 281.76533075907696 91.57277096179536 2.3147472192886376
endloop
endfacet
facet normal 1.1960209061768662e-15 4.2802457371929024e-15 -1.0
outer loop
vertex 281.76533075907696 91.57277096179536 2.3147472192886376
vertex 281.78663377845373 95.12960788710485 2.3147472192886442
vertex 282.0513842797531 91.19997875565956 2.3147472192886376
endloop
endfacet
facet normal 1.1960209061768662e-15 4.2802457371929024e-15 -1.0
outer loop
vertex 282.0513842797531 91.19997875565956 2.3147472192886376
vertex 281.78663377845373 95.12960788710485 2.3147472192886442
vertex 282.99253855294114 94.63010577458168 2.314747219288644
endloop
endfacet
facet normal 1.1960209061768662e-15 4.2802457371929024e-15 -1.0
outer loop
vertex 282.0513842797531 91.19997875565956 2.3147472192886376
vertex 282.99253855294114 94.63010577458168 2.314747219288644
vertex 282.23120504026144 90.76585303684409 2.3147472192886376
endloop
endfacet
facet normal 1.1960209061768662e-15 4.2802457371929024e-15 -1.0
outer loop
vertex 282.23120504026144 90.76585303684409 2.3147472192886376
vertex 282.99253855294114 94.63010577458168 2.314747219288644
vertex 282.29253855294115 90.29997875565955 2.314747219288632
endloop
endfacet
facet normal 1.1960209061768662e-15 4.2802457371929024e-15 -1.0
outer loop
vertex 282.29253855294115 90.29997875565955 2.314747219288632
vertex 282.99253855294114 94.63010577458168 2.314747219288644
vertex 282.992538552941 85.96985173673728 2.314747219288607
endloop
endfacet
facet normal 1.1960209061768662e-15 4.2802457371929024e-15 -1.0
outer loop
vertex 282.992538552941 85.96985173673728 2.314747219288607
vertex 282.99253855294114 94.63010577458168 2.314747219288644
vertex 284.0280724588738 86.76444484972673 2.3147472192886114
endloop
endfacet
facet normal 1.1960209061768662e-15 4.2802457371929024e-15 -1.0
outer loop
vertex 284.0280724588738 86.76444484972673 2.3147472192886114
vertex 282.99253855294114 94.63010577458168 2.314747219288644
vertex 284.02807245887385 93.8355126615922 2.3147472192886416
endloop
endfacet
facet normal 1.1960209061768662e-15 4.2802457371929024e-15 -1.0
outer loop
vertex 284.0280724588738 86.76444484972673 2.3147472192886114
vertex 284.02807245887385 93.8355126615922 2.3147472192886416
vertex 284.82266557186324 87.79997875565945 2.3147472192886167
endloop
endfacet
facet normal 1.1960209061768662e-15 4.2802457371929024e-15 -1.0
outer loop
vertex 284.82266557186324 87.79997875565945 2.3147472192886167
vertex 284.02807245887385 93.8355126615922 2.3147472192886416
vertex 284.8226655718633 92.79997875565945 2.314747219288638
endloop
endfacet
facet normal 1.1960209061768662e-15 4.2802457371929024e-15 -1.0
outer loop
vertex 284.82266557186324 87.79997875565945 2.3147472192886167
vertex 284.8226655718633 92.79997875565945 2.314747219288638
vertex 285.3221676843864 89.00588353014685 2.3147472192886225
endloop
endfacet
facet normal 1.1960209061768662e-15 4.2802457371929024e-15 -1.0
outer loop
vertex 285.3221676843864 89.00588353014685 2.3147472192886225
vertex 284.8226655718633 92.79997875565945 2.314747219288638
vertex 285.32216768438644 91.59407398117204 2.3147472192886336
endloop
endfacet
facet normal 1.1960209061768662e-15 4.2802457371929024e-15 -1.0
outer loop
vertex 285.3221676843864 89.00588353014685 2.3147472192886225
vertex 285.32216768438644 91.59407398117204 2.3147472192886336
vertex 285.4925385529411 90.29997875565944 2.3147472192886283
endloop
endfacet
facet normal 1.1960209061768662e-15 4.2802457371929024e-15 -1.0
outer loop
vertex 275.6629094214958 91.5940739811722 2.314747219288622
vertex 275.6629094214957 89.005883530147 2.314747219288611
vertex 275.4925385529411 90.29997875565961 2.3147472192886163
endloop
endfacet
facet normal 1.1960209061768662e-15 4.2802457371929024e-15 -1.0
outer loop
vertex 275.6629094214957 89.005883530147 2.314747219288611
vertex 275.6629094214958 91.5940739811722 2.314747219288622
vertex 276.1624115340189 87.7999787556596 2.3147472192886065
endloop
endfacet
facet normal 1.1960209061768662e-15 4.2802457371929024e-15 -1.0
outer loop
vertex 276.1624115340189 87.7999787556596 2.3147472192886065
vertex 275.6629094214958 91.5940739811722 2.314747219288622
vertex 276.16241153401893 92.7999787556596 2.314747219288628
endloop
endfacet
facet normal 1.1960209061768662e-15 4.2802457371929024e-15 -1.0
outer loop
vertex 276.1624115340189 87.7999787556596 2.3147472192886065
vertex 276.16241153401893 92.7999787556596 2.314747219288628
vertex 276.9570046470083 86.76444484972684 2.314747219288603
endloop
endfacet
facet normal 1.1960209061768662e-15 4.2802457371929024e-15 -1.0
outer loop
vertex 276.9570046470083 86.76444484972684 2.314747219288603
vertex 276.16241153401893 92.7999787556596 2.314747219288628
vertex 276.9570046470084 93.83551266159232 2.314747219288633
endloop
endfacet
facet normal 1.1960209061768662e-15 4.2802457371929024e-15 -1.0
outer loop
vertex 276.9570046470083 86.76444484972684 2.314747219288603
vertex 276.9570046470084 93.83551266159232 2.314747219288633
vertex 277.992538552941 85.96985173673737 2.3147472192886007
endloop
endfacet
facet normal 1.1960209061768662e-15 4.2802457371929024e-15 -1.0
outer loop
vertex 277.992538552941 85.96985173673737 2.3147472192886007
vertex 276.9570046470084 93.83551266159232 2.314747219288633
vertex 277.99253855294114 94.63010577458176 2.3147472192886376
endloop
endfacet
facet normal 1.1960209061768662e-15 4.2802457371929024e-15 -1.0
outer loop
vertex 277.992538552941 85.96985173673737 2.3147472192886007
vertex 277.99253855294114 94.63010577458176 2.3147472192886376
vertex 279.19844332742844 85.4703496242142 2.3147472192886
endloop
endfacet
facet normal 1.1960209061768662e-15 4.2802457371929024e-15 -1.0
outer loop
vertex 279.19844332742844 85.4703496242142 2.3147472192886
vertex 277.99253855294114 94.63010577458176 2.3147472192886376
vertex 278.69253855294113 90.29997875565958 2.3147472192886376
endloop
endfacet
facet normal 1.1960209061768662e-15 4.2802457371929024e-15 -1.0
outer loop
vertex 279.19844332742844 85.4703496242142 2.3147472192886
vertex 278.69253855294113 90.29997875565958 2.3147472192886376
vertex 278.7538720656208 89.83410447447504 2.3147472192886376
endloop
endfacet
facet normal 1.1960209061768662e-15 4.2802457371929024e-15 -1.0
outer loop
vertex 279.19844332742844 85.4703496242142 2.3147472192886
vertex 278.7538720656208 89.83410447447504 2.3147472192886376
vertex 278.9336928261291 89.39997875565957 2.3147472192886376
endloop
endfacet
facet normal 1.1960209061768662e-15 4.2802457371929024e-15 -1.0
outer loop
vertex 279.19844332742844 85.4703496242142 2.3147472192886
vertex 278.9336928261291 89.39997875565957 2.3147472192886376
vertex 279.2197463468053 89.02718654952379 2.3147472192886376
endloop
endfacet
facet normal 1.1960209061768662e-15 4.2802457371929024e-15 -1.0
outer loop
vertex 279.19844332742844 85.4703496242142 2.3147472192886
vertex 279.2197463468053 89.02718654952379 2.3147472192886376
vertex 280.49253855294097 85.29997875565952 2.3147472192886007
endloop
endfacet
facet normal 1.1960209061768662e-15 4.2802457371929024e-15 -1.0
outer loop
vertex 280.49253855294097 85.29997875565952 2.3147472192886007
vertex 279.2197463468053 89.02718654952379 2.3147472192886376
vertex 279.5925385529411 88.74113302884759 2.314747219288632
endloop
endfacet
facet normal 1.1960209061768662e-15 4.2802457371929024e-15 -1.0
outer loop
vertex 280.49253855294097 85.29997875565952 2.3147472192886007
vertex 279.5925385529411 88.74113302884759 2.314747219288632
vertex 280.02666427175654 88.56131226833925 2.314747219288632
endloop
endfacet
facet normal 1.1960209061768662e-15 4.2802457371929024e-15 -1.0
outer loop
vertex 280.49253855294097 85.29997875565952 2.3147472192886007
vertex 280.02666427175654 88.56131226833925 2.314747219288632
vertex 280.49253855294114 88.49997875565955 2.314747219288632
endloop
endfacet
facet normal 1.1960209061768662e-15 4.2802457371929024e-15 -1.0
outer loop
vertex 280.49253855294097 85.29997875565952 2.3147472192886007
vertex 280.49253855294114 88.49997875565955 2.314747219288632
vertex 281.7866337784536 85.47034962421417 2.3147472192886034
endloop
endfacet
facet normal 1.1960209061768662e-15 4.2802457371929024e-15 -1.0
outer loop
vertex 281.7866337784536 85.47034962421417 2.3147472192886034
vertex 280.49253855294114 88.49997875565955 2.314747219288632
vertex 280.9584128341256 88.56131226833924 2.314747219288626
endloop
endfacet
facet normal 1.1960209061768662e-15 4.2802457371929024e-15 -1.0
outer loop
vertex 281.7866337784536 85.47034962421417 2.3147472192886034
vertex 280.9584128341256 88.56131226833924 2.314747219288626
vertex 281.3925385529411 88.74113302884757 2.314747219288626
endloop
endfacet
facet normal 1.1960209061768662e-15 4.2802457371929024e-15 -1.0
outer loop
vertex 281.7866337784536 85.47034962421417 2.3147472192886034
vertex 281.3925385529411 88.74113302884757 2.314747219288626
vertex 281.7653307590769 89.02718654952378 2.314747219288626
endloop
endfacet
facet normal 1.1960209061768662e-15 4.2802457371929024e-15 -1.0
outer loop
vertex 281.7866337784536 85.47034962421417 2.3147472192886034
vertex 281.7653307590769 89.02718654952378 2.314747219288626
vertex 282.0513842797531 89.39997875565956 2.314747219288626
endloop
endfacet
facet normal 1.1960209061768662e-15 4.2802457371929024e-15 -1.0
outer loop
vertex 281.7866337784536 85.47034962421417 2.3147472192886034
vertex 282.0513842797531 89.39997875565956 2.314747219288626
vertex 282.992538552941 85.96985173673728 2.314747219288607
endloop
endfacet
facet normal 1.1960209061768662e-15 4.2802457371929024e-15 -1.0
outer loop
vertex 282.992538552941 85.96985173673728 2.314747219288607
vertex 282.0513842797531 89.39997875565956 2.314747219288626
vertex 282.23120504026144 89.83410447447501 2.314747219288632
endloop
endfacet
facet normal 1.1960209061768662e-15 4.2802457371929024e-15 -1.0
outer loop
vertex 282.992538552941 85.96985173673728 2.314747219288607
vertex 282.23120504026144 89.83410447447501 2.314747219288632
vertex 282.29253855294115 90.29997875565955 2.314747219288632
endloop
endfacet
facet normal -1.165994207453578e-15 -4.260753675055399e-15 1.0
outer loop
vertex 275.6629094214957 89.00588353014697 12.014747219288616
vertex 275.6629094214958 91.59407398117219 12.014747219288626
vertex 275.4925385529411 90.29997875565958 12.01474721928862
endloop
endfacet
facet normal -1.165994207453578e-15 -4.260753675055399e-15 1.0
outer loop
vertex 275.6629094214958 91.59407398117219 12.014747219288626
vertex 275.6629094214957 89.00588353014697 12.014747219288616
vertex 276.1624115340189 87.79997875565957 12.014747219288612
endloop
endfacet
facet normal -1.165994207453578e-15 -4.260753675055399e-15 1.0
outer loop
vertex 275.6629094214958 91.59407398117219 12.014747219288626
vertex 276.1624115340189 87.79997875565957 12.014747219288612
vertex 276.16241153401893 92.79997875565958 12.014747219288632
endloop
endfacet
facet normal -1.165994207453578e-15 -4.260753675055399e-15 1.0
outer loop
vertex 276.16241153401893 92.79997875565958 12.014747219288632
vertex 276.1624115340189 87.79997875565957 12.014747219288612
vertex 276.9570046470083 86.76444484972683 12.014747219288607
endloop
endfacet
facet normal -1.165994207453578e-15 -4.260753675055399e-15 1.0
outer loop
vertex 276.16241153401893 92.79997875565958 12.014747219288632
vertex 276.9570046470083 86.76444484972683 12.014747219288607
vertex 276.9570046470084 93.83551266159229 12.014747219288639
endloop
endfacet
facet normal -1.165994207453578e-15 -4.260753675055399e-15 1.0
outer loop
vertex 276.9570046470084 93.83551266159229 12.014747219288639
vertex 276.9570046470083 86.76444484972683 12.014747219288607
vertex 277.992538552941 85.96985173673734 12.014747219288607
endloop
endfacet
facet normal -1.165994207453578e-15 -4.260753675055399e-15 1.0
outer loop
vertex 276.9570046470084 93.83551266159229 12.014747219288639
vertex 277.992538552941 85.96985173673734 12.014747219288607
vertex 277.99253855294114 94.63010577458174 12.014747219288644
endloop
endfacet
facet normal -1.165994207453578e-15 -4.260753675055399e-15 1.0
outer loop
vertex 277.99253855294114 94.63010577458174 12.014747219288644
vertex 277.992538552941 85.96985173673734 12.014747219288607
vertex 279.19844332742844 85.47034962421418 12.014747219288605
endloop
endfacet
facet normal -1.165994207453578e-15 -4.260753675055399e-15 1.0
outer loop
vertex 277.99253855294114 94.63010577458174 12.014747219288644
vertex 279.19844332742844 85.47034962421418 12.014747219288605
vertex 278.6925385529411 90.29997875565954 12.014747219288624
endloop
endfacet
facet normal -1.165994207453578e-15 -4.260753675055399e-15 1.0
outer loop
vertex 278.6925385529411 90.29997875565954 12.014747219288624
vertex 279.19844332742844 85.47034962421418 12.014747219288605
vertex 278.7538720656208 89.834104474475 12.014747219288624
endloop
endfacet
facet normal -1.165994207453578e-15 -4.260753675055399e-15 1.0
outer loop
vertex 278.7538720656208 89.834104474475 12.014747219288624
vertex 279.19844332742844 85.47034962421418 12.014747219288605
vertex 278.93369282612906 89.39997875565953 12.014747219288623
endloop
endfacet
facet normal -1.165994207453578e-15 -4.260753675055399e-15 1.0
outer loop
vertex 278.93369282612906 89.39997875565953 12.014747219288623
vertex 279.19844332742844 85.47034962421418 12.014747219288605
vertex 279.21974634680527 89.02718654952373 12.01474721928862
endloop
endfacet
facet normal -1.165994207453578e-15 -4.260753675055399e-15 1.0
outer loop
vertex 279.21974634680527 89.02718654952373 12.01474721928862
vertex 279.19844332742844 85.47034962421418 12.014747219288605
vertex 280.49253855294097 85.2999787556595 12.014747219288607
endloop
endfacet
facet normal -1.165994207453578e-15 -4.260753675055399e-15 1.0
outer loop
vertex 279.21974634680527 89.02718654952373 12.01474721928862
vertex 280.49253855294097 85.2999787556595 12.014747219288607
vertex 279.59253855294105 88.74113302884754 12.014747219288619
endloop
endfacet
facet normal -1.165994207453578e-15 -4.260753675055399e-15 1.0
outer loop
vertex 279.59253855294105 88.74113302884754 12.014747219288619
vertex 280.49253855294097 85.2999787556595 12.014747219288607
vertex 280.02666427175654 88.5613122683392 12.014747219288619
endloop
endfacet
facet normal -1.165994207453578e-15 -4.260753675055399e-15 1.0
outer loop
vertex 280.02666427175654 88.5613122683392 12.014747219288619
vertex 280.49253855294097 85.2999787556595 12.014747219288607
vertex 280.4925385529411 88.49997875565951 12.014747219288619
endloop
endfacet
facet normal -1.165994207453578e-15 -4.260753675055399e-15 1.0
outer loop
vertex 280.4925385529411 88.49997875565951 12.014747219288619
vertex 280.49253855294097 85.2999787556595 12.014747219288607
vertex 281.7866337784536 85.47034962421414 12.01474721928861
endloop
endfacet
facet normal -1.165994207453578e-15 -4.260753675055399e-15 1.0
outer loop
vertex 280.4925385529411 88.49997875565951 12.014747219288619
vertex 281.7866337784536 85.47034962421414 12.01474721928861
vertex 280.9584128341256 88.5613122683392 12.014747219288617
endloop
endfacet
facet normal -1.165994207453578e-15 -4.260753675055399e-15 1.0
outer loop
vertex 280.9584128341256 88.5613122683392 12.014747219288617
vertex 281.7866337784536 85.47034962421414 12.01474721928861
vertex 281.39253855294106 88.74113302884753 12.014747219288617
endloop
endfacet
facet normal -1.165994207453578e-15 -4.260753675055399e-15 1.0
outer loop
vertex 281.39253855294106 88.74113302884753 12.014747219288617
vertex 281.7866337784536 85.47034962421414 12.01474721928861
vertex 281.76533075907685 89.02718654952373 12.014747219288617
endloop
endfacet
facet normal -1.165994207453578e-15 -4.260753675055399e-15 1.0
outer loop
vertex 281.76533075907685 89.02718654952373 12.014747219288617
vertex 281.7866337784536 85.47034962421414 12.01474721928861
vertex 282.0513842797531 89.39997875565952 12.014747219288617
endloop
endfacet
facet normal -1.165994207453578e-15 -4.260753675055399e-15 1.0
outer loop
vertex 282.0513842797531 89.39997875565952 12.014747219288617
vertex 281.7866337784536 85.47034962421414 12.01474721928861
vertex 282.992538552941 85.96985173673727 12.014747219288612
endloop
endfacet
facet normal -1.165994207453578e-15 -4.260753675055399e-15 1.0
outer loop
vertex 282.0513842797531 89.39997875565952 12.014747219288617
vertex 282.992538552941 85.96985173673727 12.014747219288612
vertex 282.2312050402614 89.83410447447497 12.014747219288619
endloop
endfacet
facet normal -1.165994207453578e-15 -4.260753675055399e-15 1.0
outer loop
vertex 282.2312050402614 89.83410447447497 12.014747219288619
vertex 282.992538552941 85.96985173673727 12.014747219288612
vertex 282.2925385529411 90.29997875565951 12.014747219288619
endloop
endfacet
facet normal -1.165994207453578e-15 -4.260753675055399e-15 1.0
outer loop
vertex 278.6925385529411 90.29997875565954 12.014747219288624
vertex 279.19844332742855 95.12960788710487 12.014747219288646
vertex 277.99253855294114 94.63010577458174 12.014747219288644
endloop
endfacet
facet normal -1.165994207453578e-15 -4.260753675055399e-15 1.0
outer loop
vertex 279.19844332742855 95.12960788710487 12.014747219288646
vertex 278.6925385529411 90.29997875565954 12.014747219288624
vertex 278.7538720656208 90.76585303684408 12.014747219288626
endloop
endfacet
facet normal -1.165994207453578e-15 -4.260753675055399e-15 1.0
outer loop
vertex 279.19844332742855 95.12960788710487 12.014747219288646
vertex 278.7538720656208 90.76585303684408 12.014747219288626
vertex 278.93369282612906 91.19997875565953 12.014747219288628
endloop
endfacet
facet normal -1.165994207453578e-15 -4.260753675055399e-15 1.0
outer loop
vertex 279.19844332742855 95.12960788710487 12.014747219288646
vertex 278.93369282612906 91.19997875565953 12.014747219288628
vertex 279.2197463468053 91.57277096179531 12.014747219288628
endloop
endfacet
facet normal -1.165994207453578e-15 -4.260753675055399e-15 1.0
outer loop
vertex 279.19844332742855 95.12960788710487 12.014747219288646
vertex 279.2197463468053 91.57277096179531 12.014747219288628
vertex 280.4925385529412 95.29997875565951 12.01474721928865
endloop
endfacet
facet normal -1.165994207453578e-15 -4.260753675055399e-15 1.0
outer loop
vertex 280.4925385529412 95.29997875565951 12.01474721928865
vertex 279.2197463468053 91.57277096179531 12.014747219288628
vertex 279.5925385529411 91.85882448247152 12.014747219288628
endloop
endfacet
facet normal -1.165994207453578e-15 -4.260753675055399e-15 1.0
outer loop
vertex 280.4925385529412 95.29997875565951 12.01474721928865
vertex 279.5925385529411 91.85882448247152 12.014747219288628
vertex 280.02666427175654 92.03864524297985 12.014747219288628
endloop
endfacet
facet normal -1.165994207453578e-15 -4.260753675055399e-15 1.0
outer loop
vertex 280.4925385529412 95.29997875565951 12.01474721928865
vertex 280.02666427175654 92.03864524297985 12.014747219288628
vertex 280.4925385529411 92.09997875565954 12.014747219288626
endloop
endfacet
facet normal -1.165994207453578e-15 -4.260753675055399e-15 1.0
outer loop
vertex 280.4925385529412 95.29997875565951 12.01474721928865
vertex 280.4925385529411 92.09997875565954 12.014747219288626
vertex 280.9584128341256 92.03864524297984 12.014747219288626
endloop
endfacet
facet normal -1.165994207453578e-15 -4.260753675055399e-15 1.0
outer loop
vertex 280.4925385529412 95.29997875565951 12.01474721928865
vertex 280.9584128341256 92.03864524297984 12.014747219288626
vertex 281.78663377845373 95.12960788710483 12.01474721928865
endloop
endfacet
facet normal -1.165994207453578e-15 -4.260753675055399e-15 1.0
outer loop
vertex 281.78663377845373 95.12960788710483 12.01474721928865
vertex 280.9584128341256 92.03864524297984 12.014747219288626
vertex 281.3925385529411 91.8588244824715 12.014747219288624
endloop
endfacet
facet normal -1.165994207453578e-15 -4.260753675055399e-15 1.0
outer loop
vertex 281.78663377845373 95.12960788710483 12.01474721928865
vertex 281.3925385529411 91.8588244824715 12.014747219288624
vertex 281.7653307590769 91.57277096179531 12.014747219288624
endloop
endfacet
facet normal -1.165994207453578e-15 -4.260753675055399e-15 1.0
outer loop
vertex 281.78663377845373 95.12960788710483 12.01474721928865
vertex 281.7653307590769 91.57277096179531 12.014747219288624
vertex 282.0513842797531 91.19997875565952 12.014747219288623
endloop
endfacet
facet normal -1.165994207453578e-15 -4.260753675055399e-15 1.0
outer loop
vertex 281.78663377845373 95.12960788710483 12.01474721928865
vertex 282.0513842797531 91.19997875565952 12.014747219288623
vertex 282.99253855294114 94.63010577458165 12.01474721928865
endloop
endfacet
facet normal -1.165994207453578e-15 -4.260753675055399e-15 1.0
outer loop
vertex 282.99253855294114 94.63010577458165 12.01474721928865
vertex 282.0513842797531 91.19997875565952 12.014747219288623
vertex 282.2312050402614 90.76585303684405 12.01474721928862
endloop
endfacet
facet normal -1.165994207453578e-15 -4.260753675055399e-15 1.0
outer loop
vertex 282.99253855294114 94.63010577458165 12.01474721928865
vertex 282.2312050402614 90.76585303684405 12.01474721928862
vertex 282.2925385529411 90.29997875565951 12.014747219288619
endloop
endfacet
facet normal -1.165994207453578e-15 -4.260753675055399e-15 1.0
outer loop
vertex 282.99253855294114 94.63010577458165 12.01474721928865
vertex 282.2925385529411 90.29997875565951 12.014747219288619
vertex 282.992538552941 85.96985173673727 12.014747219288612
endloop
endfacet
facet normal -1.165994207453578e-15 -4.260753675055399e-15 1.0
outer loop
vertex 282.99253855294114 94.63010577458165 12.01474721928865
vertex 282.992538552941 85.96985173673727 12.014747219288612
vertex 284.0280724588738 86.76444484972671 12.014747219288616
endloop
endfacet
facet normal -1.165994207453578e-15 -4.260753675055399e-15 1.0
outer loop
vertex 282.99253855294114 94.63010577458165 12.01474721928865
vertex 284.0280724588738 86.76444484972671 12.014747219288616
vertex 284.02807245887385 93.83551266159218 12.014747219288646
endloop
endfacet
facet normal -1.165994207453578e-15 -4.260753675055399e-15 1.0
outer loop
vertex 284.02807245887385 93.83551266159218 12.014747219288646
vertex 284.0280724588738 86.76444484972671 12.014747219288616
vertex 284.82266557186324 87.79997875565942 12.01474721928862
endloop
endfacet
facet normal -1.165994207453578e-15 -4.260753675055399e-15 1.0
outer loop
vertex 284.02807245887385 93.83551266159218 12.014747219288646
vertex 284.82266557186324 87.79997875565942 12.01474721928862
vertex 284.8226655718633 92.79997875565942 12.014747219288644
endloop
endfacet
facet normal -1.165994207453578e-15 -4.260753675055399e-15 1.0
outer loop
vertex 284.8226655718633 92.79997875565942 12.014747219288644
vertex 284.82266557186324 87.79997875565942 12.01474721928862
vertex 285.3221676843864 89.00588353014682 12.014747219288626
endloop
endfacet
facet normal -1.165994207453578e-15 -4.260753675055399e-15 1.0
outer loop
vertex 284.8226655718633 92.79997875565942 12.014747219288644
vertex 285.3221676843864 89.00588353014682 12.014747219288626
vertex 285.32216768438644 91.59407398117203 12.014747219288639
endloop
endfacet
facet normal -1.165994207453578e-15 -4.260753675055399e-15 1.0
outer loop
vertex 285.32216768438644 91.59407398117203 12.014747219288639
vertex 285.3221676843864 89.00588353014682 12.014747219288626
vertex 285.4925385529411 90.29997875565942 12.014747219288632
endloop
endfacet
facet normal 0.9659258262890713 0.2588190451025098 -8.925892469468735e-16
outer loop
vertex 278.7538720656208 89.83410447447504 2.3147472192886376
vertex 278.6925385529411 90.29997875565954 12.014747219288624
vertex 278.7538720656208 89.834104474475 12.014747219288624
endloop
endfacet
facet normal 1.0 1.3366664843470346e-16 -1.659073009876914e-15
outer loop
vertex 278.6925385529411 90.29997875565954 12.014747219288624
vertex 278.7538720656208 89.83410447447504 2.3147472192886376
vertex 278.69253855294113 90.29997875565958 2.3147472192886376
endloop
endfacet
facet normal -0.2588190451025231 0.9659258262890676 3.078977451861759e-15
outer loop
vertex 280.9584128341256 88.5613122683392 12.014747219288617
vertex 281.3925385529411 88.74113302884757 2.314747219288626
vertex 280.9584128341256 88.56131226833924 2.314747219288626
endloop
endfacet
facet normal -0.5000000000000027 0.8660254037844372 3.2050829358785365e-15
outer loop
vertex 281.3925385529411 88.74113302884757 2.314747219288626
vertex 280.9584128341256 88.5613122683392 12.014747219288617
vertex 281.39253855294106 88.74113302884753 12.014747219288617
endloop
endfacet
facet normal 0.5000000000000027 -0.8660254037844372 -3.2050829358785365e-15
outer loop
vertex 279.5925385529411 91.85882448247152 12.014747219288628
vertex 279.2197463468054 91.57277096179537 2.3147472192886376
vertex 279.59253855294116 91.85882448247156 2.3147472192886376
endloop
endfacet
facet normal 0.707106781186527 -0.7071067811865682 -3.112767314465202e-15
outer loop
vertex 279.2197463468054 91.57277096179537 2.3147472192886376
vertex 279.5925385529411 91.85882448247152 12.014747219288628
vertex 279.2197463468053 91.57277096179531 12.014747219288628
endloop
endfacet
facet normal 1.0 -3.920888354084633e-16 -1.6590730098769154e-15
outer loop
vertex 278.69253855294113 90.29997875565958 2.3147472192886376
vertex 278.7538720656208 90.76585303684408 12.014747219288626
vertex 278.6925385529411 90.29997875565954 12.014747219288624
endloop
endfacet
facet normal 0.9659258262890712 -0.2588190451025098 -2.312493688931637e-15
outer loop
vertex 278.7538720656208 90.76585303684408 12.014747219288626
vertex 278.69253855294113 90.29997875565958 2.3147472192886376
vertex 278.7538720656208 90.76585303684412 2.3147472192886376
endloop
endfacet
facet normal 4.740710464484135e-15 1.0 2.7430447427514108e-15
outer loop
vertex 280.49253855294114 88.49997875565955 2.314747219288632
vertex 280.9584128341256 88.5613122683392 12.014747219288617
vertex 280.9584128341256 88.56131226833924 2.314747219288626
endloop
endfacet
facet normal -0.2588190451025231 0.9659258262890676 3.078977451861759e-15
outer loop
vertex 280.9584128341256 88.5613122683392 12.014747219288617
vertex 280.49253855294114 88.49997875565955 2.314747219288632
vertex 280.4925385529411 88.49997875565951 12.014747219288619
endloop
endfacet
facet normal 0.9659258262890714 0.25881904510250875 2.263076596562244e-15
outer loop
vertex 285.32216768438644 91.59407398117204 2.3147472192886336
vertex 284.8226655718633 92.79997875565942 12.014747219288644
vertex 285.32216768438644 91.59407398117203 12.014747219288639
endloop
endfacet
facet normal 0.8660254037844441 0.4999999999999906 3.1759073568028683e-15
outer loop
vertex 284.8226655718633 92.79997875565942 12.014747219288644
vertex 285.32216768438644 91.59407398117204 2.3147472192886336
vertex 284.8226655718633 92.79997875565945 2.314747219288638
endloop
endfacet
facet normal -0.5000000000000148 -0.8660254037844302 -4.30481199593752e-15
outer loop
vertex 277.992538552941 85.96985173673734 12.014747219288607
vertex 276.9570046470083 86.76444484972684 2.314747219288603
vertex 277.992538552941 85.96985173673737 2.3147472192886007
endloop
endfacet
facet normal -0.7071067811865633 -0.7071067811865317 -3.872305279112408e-15
outer loop
vertex 276.9570046470083 86.76444484972684 2.314747219288603
vertex 277.992538552941 85.96985173673734 12.014747219288607
vertex 276.9570046470083 86.76444484972683 12.014747219288607
endloop
endfacet
facet normal 0.7071067811865334 -0.7071067811865617 -2.1808762927154513e-15
outer loop
vertex 284.0280724588738 86.76444484972673 2.3147472192886114
vertex 282.992538552941 85.96985173673727 12.014747219288612
vertex 282.992538552941 85.96985173673728 2.314747219288607
endloop
endfacet
facet normal 0.499999999999983 -0.8660254037844486 -3.1087910897607353e-15
outer loop
vertex 282.992538552941 85.96985173673727 12.014747219288612
vertex 284.0280724588738 86.76444484972673 2.3147472192886114
vertex 284.0280724588738 86.76444484972671 12.014747219288616
endloop
endfacet
facet normal 0.9659258262890665 -0.25881904510252723 4.745836755345787e-17
outer loop
vertex 285.3221676843864 89.00588353014685 2.3147472192886225
vertex 285.4925385529411 90.29997875565942 12.014747219288632
vertex 285.3221676843864 89.00588353014682 12.014747219288626
endloop
endfacet
facet normal 1.0 -1.6966753241311677e-14 1.1960209061767934e-15
outer loop
vertex 285.4925385529411 90.29997875565942 12.014747219288632
vertex 285.3221676843864 89.00588353014685 2.3147472192886225
vertex 285.4925385529411 90.29997875565944 2.3147472192886283
endloop
endfacet
facet normal 1.0 -1.729646430745061e-14 1.196020906176792e-15
outer loop
vertex 285.4925385529411 90.29997875565944 2.3147472192886283
vertex 285.32216768438644 91.59407398117203 12.014747219288639
vertex 285.4925385529411 90.29997875565942 12.014747219288632
endloop
endfacet
facet normal 0.9659258262890714 0.25881904510250914 2.263076596562245e-15
outer loop
vertex 285.32216768438644 91.59407398117203 12.014747219288639
vertex 285.4925385529411 90.29997875565944 2.3147472192886283
vertex 285.32216768438644 91.59407398117204 2.3147472192886336
endloop
endfacet
facet normal -0.9659258262890666 0.2588190451025272 -4.745836755345794e-17
outer loop
vertex 275.6629094214958 91.59407398117219 12.014747219288626
vertex 275.4925385529411 90.29997875565961 2.3147472192886163
vertex 275.4925385529411 90.29997875565958 12.01474721928862
endloop
endfacet
facet normal -1.0 1.6975664351207323e-14 -1.1960209061767934e-15
outer loop
vertex 275.4925385529411 90.29997875565961 2.3147472192886163
vertex 275.6629094214958 91.59407398117219 12.014747219288626
vertex 275.6629094214958 91.5940739811722 2.314747219288622
endloop
endfacet
facet normal -0.8660254037844325 0.5000000000000107 1.1043383803900537e-15
outer loop
vertex 276.16241153401893 92.79997875565958 12.014747219288632
vertex 275.6629094214958 91.5940739811722 2.314747219288622
vertex 275.6629094214958 91.59407398117219 12.014747219288626
endloop
endfacet
facet normal -0.9659258262890668 0.2588190451025269 -4.745836755345957e-17
outer loop
vertex 275.6629094214958 91.5940739811722 2.314747219288622
vertex 276.16241153401893 92.79997875565958 12.014747219288632
vertex 276.16241153401893 92.7999787556596 2.314747219288628
endloop
endfacet
facet normal 0.258819045102506 -0.9659258262890721 -3.8248469115590025e-15
outer loop
vertex 281.7866337784536 85.47034962421417 2.3147472192886034
vertex 280.49253855294097 85.2999787556595 12.014747219288607
vertex 280.49253855294097 85.29997875565952 2.3147472192886007
endloop
endfacet
facet normal -1.4935020185104218e-14 -1.0 -4.2802457371929206e-15
outer loop
vertex 280.49253855294097 85.2999787556595 12.014747219288607
vertex 281.7866337784536 85.47034962421417 2.3147472192886034
vertex 281.7866337784536 85.47034962421414 12.01474721928861
endloop
endfacet
facet normal -0.2588190451025361 -0.9659258262890642 -4.4439528892776655e-15
outer loop
vertex 279.19844332742844 85.47034962421418 12.014747219288605
vertex 277.992538552941 85.96985173673737 2.3147472192886007
vertex 279.19844332742844 85.4703496242142 2.3147472192886
endloop
endfacet
facet normal -0.5000000000000149 -0.8660254037844303 -4.304811995937521e-15
outer loop
vertex 277.992538552941 85.96985173673737 2.3147472192886007
vertex 279.19844332742844 85.47034962421418 12.014747219288605
vertex 277.992538552941 85.96985173673734 12.014747219288607
endloop
endfacet
facet normal -0.7071067811865333 0.7071067811865619 2.1808762927154516e-15
outer loop
vertex 276.9570046470084 93.83551266159229 12.014747219288639
vertex 277.99253855294114 94.63010577458176 2.3147472192886376
vertex 276.9570046470084 93.83551266159232 2.314747219288633
endloop
endfacet
facet normal -0.499999999999983 0.8660254037844484 3.1087910897607345e-15
outer loop
vertex 277.99253855294114 94.63010577458176 2.3147472192886376
vertex 276.9570046470084 93.83551266159229 12.014747219288639
vertex 277.99253855294114 94.63010577458174 12.014747219288644
endloop
endfacet
facet normal 0.5000000000000149 0.8660254037844303 4.3048119959375204e-15
outer loop
vertex 282.99253855294114 94.63010577458168 2.314747219288644
vertex 284.02807245887385 93.83551266159218 12.014747219288646
vertex 284.02807245887385 93.8355126615922 2.3147472192886416
endloop
endfacet
facet normal 0.7071067811865634 0.7071067811865317 3.872305279112408e-15
outer loop
vertex 284.02807245887385 93.83551266159218 12.014747219288646
vertex 282.99253855294114 94.63010577458168 2.314747219288644
vertex 282.99253855294114 94.63010577458165 12.01474721928865
endloop
endfacet
facet normal -1.0 1.7305375417346257e-14 -1.196020906176792e-15
outer loop
vertex 275.4925385529411 90.29997875565958 12.01474721928862
vertex 275.6629094214957 89.005883530147 2.314747219288611
vertex 275.6629094214957 89.00588353014697 12.014747219288616
endloop
endfacet
facet normal -0.9659258262890714 -0.25881904510250914 -2.2630765965622455e-15
outer loop
vertex 275.6629094214957 89.005883530147 2.314747219288611
vertex 275.4925385529411 90.29997875565958 12.01474721928862
vertex 275.4925385529411 90.29997875565961 2.3147472192886163
endloop
endfacet
facet normal 0.8660254037844325 -0.5000000000000108 -1.1043383803900543e-15
outer loop
vertex 284.82266557186324 87.79997875565945 2.3147472192886167
vertex 285.3221676843864 89.00588353014682 12.014747219288626
vertex 284.82266557186324 87.79997875565942 12.01474721928862
endloop
endfacet
facet normal 0.9659258262890668 -0.2588190451025269 4.7458367553459535e-17
outer loop
vertex 285.3221676843864 89.00588353014682 12.014747219288626
vertex 284.82266557186324 87.79997875565945 2.3147472192886167
vertex 285.3221676843864 89.00588353014685 2.3147472192886225
endloop
endfacet
facet normal -0.8660254037844441 -0.4999999999999904 -3.1759073568028675e-15
outer loop
vertex 276.1624115340189 87.79997875565957 12.014747219288612
vertex 276.9570046470083 86.76444484972684 2.314747219288603
vertex 276.9570046470083 86.76444484972683 12.014747219288607
endloop
endfacet
facet normal -0.7071067811865633 -0.7071067811865317 -3.872305279112408e-15
outer loop
vertex 276.9570046470083 86.76444484972684 2.314747219288603
vertex 276.1624115340189 87.79997875565957 12.014747219288612
vertex 276.1624115340189 87.7999787556596 2.3147472192886065
endloop
endfacet
facet normal 0.8660254037844443 0.4999999999999905 3.175907356802868e-15
outer loop
vertex 284.8226655718633 92.79997875565945 2.314747219288638
vertex 284.02807245887385 93.83551266159218 12.014747219288646
vertex 284.8226655718633 92.79997875565942 12.014747219288644
endloop
endfacet
facet normal 0.7071067811865634 0.7071067811865317 3.872305279112408e-15
outer loop
vertex 284.02807245887385 93.83551266159218 12.014747219288646
vertex 284.8226655718633 92.79997875565945 2.314747219288638
vertex 284.02807245887385 93.8355126615922 2.3147472192886416
endloop
endfacet
facet normal -0.258819045102506 0.9659258262890721 3.8248469115590025e-15
outer loop
vertex 279.19844332742855 95.12960788710487 12.014747219288646
vertex 280.4925385529412 95.29997875565952 2.314747219288644
vertex 279.19844332742855 95.12960788710488 2.314747219288641
endloop
endfacet
facet normal 1.501522017416503e-14 1.0 4.28024573719292e-15
outer loop
vertex 280.4925385529412 95.29997875565952 2.314747219288644
vertex 279.19844332742855 95.12960788710487 12.014747219288646
vertex 280.4925385529412 95.29997875565951 12.01474721928865
endloop
endfacet
facet normal 1.5211264591869275e-14 1.0 4.2802457371929206e-15
outer loop
vertex 280.4925385529412 95.29997875565951 12.01474721928865
vertex 281.78663377845373 95.12960788710485 2.3147472192886442
vertex 280.4925385529412 95.29997875565952 2.314747219288644
endloop
endfacet
facet normal 0.2588190451025361 0.9659258262890642 4.443952889277665e-15
outer loop
vertex 281.78663377845373 95.12960788710485 2.3147472192886442
vertex 280.4925385529412 95.29997875565951 12.01474721928865
vertex 281.78663377845373 95.12960788710483 12.01474721928865
endloop
endfacet
facet normal -0.7071067811865333 0.7071067811865619 2.1808762927154516e-15
outer loop
vertex 276.9570046470084 93.83551266159229 12.014747219288639
vertex 276.16241153401893 92.7999787556596 2.314747219288628
vertex 276.16241153401893 92.79997875565958 12.014747219288632
endloop
endfacet
facet normal -0.8660254037844326 0.5000000000000104 1.1043383803900525e-15
outer loop
vertex 276.16241153401893 92.7999787556596 2.314747219288628
vertex 276.9570046470084 93.83551266159229 12.014747219288639
vertex 276.9570046470084 93.83551266159232 2.314747219288633
endloop
endfacet
facet normal -0.49999999999998285 0.8660254037844486 3.1087910897607357e-15
outer loop
vertex 277.99253855294114 94.63010577458174 12.014747219288644
vertex 279.19844332742855 95.12960788710488 2.314747219288641
vertex 277.99253855294114 94.63010577458176 2.3147472192886376
endloop
endfacet
facet normal -0.25881904510250625 0.9659258262890721 3.8248469115590025e-15
outer loop
vertex 279.19844332742855 95.12960788710488 2.314747219288641
vertex 277.99253855294114 94.63010577458174 12.014747219288644
vertex 279.19844332742855 95.12960788710487 12.014747219288646
endloop
endfacet
facet normal 0.7071067811865334 -0.7071067811865617 -2.1808762927154513e-15
outer loop
vertex 284.0280724588738 86.76444484972673 2.3147472192886114
vertex 284.82266557186324 87.79997875565942 12.01474721928862
vertex 284.0280724588738 86.76444484972671 12.014747219288616
endloop
endfacet
facet normal 0.8660254037844326 -0.5000000000000103 -1.1043383803900523e-15
outer loop
vertex 284.82266557186324 87.79997875565942 12.01474721928862
vertex 284.0280724588738 86.76444484972673 2.3147472192886114
vertex 284.82266557186324 87.79997875565945 2.3147472192886167
endloop
endfacet
facet normal 0.4999999999999827 -0.8660254037844486 -3.108791089760735e-15
outer loop
vertex 282.992538552941 85.96985173673728 2.314747219288607
vertex 281.7866337784536 85.47034962421414 12.01474721928861
vertex 281.7866337784536 85.47034962421417 2.3147472192886034
endloop
endfacet
facet normal 0.2588190451025062 -0.9659258262890721 -3.824846911559002e-15
outer loop
vertex 281.7866337784536 85.47034962421414 12.01474721928861
vertex 282.992538552941 85.96985173673728 2.314747219288607
vertex 282.992538552941 85.96985173673727 12.014747219288612
endloop
endfacet
facet normal -1.5220175701764916e-14 -1.0 -4.2802457371929206e-15
outer loop
vertex 280.49253855294097 85.29997875565952 2.3147472192886007
vertex 279.19844332742844 85.47034962421418 12.014747219288605
vertex 279.19844332742844 85.4703496242142 2.3147472192886
endloop
endfacet
facet normal -0.2588190451025361 -0.9659258262890642 -4.4439528892776655e-15
outer loop
vertex 279.19844332742844 85.47034962421418 12.014747219288605
vertex 280.49253855294097 85.29997875565952 2.3147472192886007
vertex 280.49253855294097 85.2999787556595 12.014747219288607
endloop
endfacet
facet normal -0.9659258262890714 -0.25881904510250886 -2.2630765965622443e-15
outer loop
vertex 275.6629094214957 89.00588353014697 12.014747219288616
vertex 276.1624115340189 87.7999787556596 2.3147472192886065
vertex 276.1624115340189 87.79997875565957 12.014747219288612
endloop
endfacet
facet normal -0.866025403784444 -0.4999999999999905 -3.1759073568028675e-15
outer loop
vertex 276.1624115340189 87.7999787556596 2.3147472192886065
vertex 275.6629094214957 89.00588353014697 12.014747219288616
vertex 275.6629094214957 89.005883530147 2.314747219288611
endloop
endfacet
facet normal 0.2588190451025361 0.9659258262890642 4.443952889277665e-15
outer loop
vertex 281.78663377845373 95.12960788710485 2.3147472192886442
vertex 282.99253855294114 94.63010577458165 12.01474721928865
vertex 282.99253855294114 94.63010577458168 2.314747219288644
endloop
endfacet
facet normal 0.5000000000000148 0.8660254037844302 4.30481199593752e-15
outer loop
vertex 282.99253855294114 94.63010577458165 12.01474721928865
vertex 281.78663377845373 95.12960788710485 2.3147472192886442
vertex 281.78663377845373 95.12960788710483 12.01474721928865
endloop
endfacet
endsolid diseños
