solid diseños
facet normal 1.0 1.3329048049007634e-31 -1.1287765179944961e-14
outer loop
vertex 131.53496537617121 -305.797231577759 9.005598450802559
vertex 131.53496537617127 -302.161533478041 12.252157240145388
vertex 131.5349653761713 -305.797231577759 17.000000000000334
endloop
endfacet
facet normal 1.0 1.3329048049007634e-31 -1.1287765179944961e-14
outer loop
vertex 131.53496537617127 -302.161533478041 12.252157240145388
vertex 131.53496537617121 -305.797231577759 9.005598450802559
vertex 131.53496537617127 -301.92384119540907 11.942390626490925
endloop
endfacet
facet normal 1.0 1.3329048049007634e-31 -1.1287765179944961e-14
outer loop
vertex 131.53496537617127 -301.92384119540907 11.942390626490925
vertex 131.53496537617121 -305.797231577759 9.005598450802559
vertex 131.53496537617127 -301.61407458175466 11.704698343859027
endloop
endfacet
facet normal 1.0 1.3329048049007634e-31 -1.1287765179944961e-14
outer loop
vertex 131.53496537617127 -301.61407458175466 11.704698343859027
vertex 131.53496537617121 -305.797231577759 9.005598450802559
vertex 131.53496537617127 -301.25334371988464 11.555278728505952
endloop
endfacet
facet normal 1.0 1.3329048049007634e-31 -1.1287765179944961e-14
outer loop
vertex 131.53496537617127 -301.25334371988464 11.555278728505952
vertex 131.53496537617121 -305.797231577759 9.005598450802559
vertex 131.53496537617127 -300.86623182189965 11.504314480290423
endloop
endfacet
facet normal 1.0 1.3329048049007634e-31 -1.1287765179944961e-14
outer loop
vertex 131.53496537617127 -300.86623182189965 11.504314480290423
vertex 131.53496537617121 -305.797231577759 9.005598450802559
vertex 131.53496537617121 -243.79723157775913 9.005598450802559
endloop
endfacet
facet normal 1.0 1.3329048049007634e-31 -1.1287765179944961e-14
outer loop
vertex 131.5349653761713 -305.797231577759 17.000000000000334
vertex 131.53496537617127 -302.161533478041 12.252157240145388
vertex 131.53496537617127 -302.31095309339406 12.61288810201538
endloop
endfacet
facet normal 1.0 1.3329048049007634e-31 -1.1287765179944961e-14
outer loop
vertex 131.5349653761713 -305.797231577759 17.000000000000334
vertex 131.53496537617127 -302.31095309339406 12.61288810201538
vertex 131.53496537617127 -302.3619173416096 13.000000000000362
endloop
endfacet
facet normal 1.0 1.3329048049007634e-31 -1.1287765179944961e-14
outer loop
vertex 131.53496537617127 -300.86623182189965 11.504314480290423
vertex 131.53496537617121 -243.79723157775913 9.005598450802559
vertex 131.53496537617127 -300.47911992391477 11.555278728505952
endloop
endfacet
facet normal 1.0 1.3329048049007634e-31 -1.1287765179944961e-14
outer loop
vertex 131.53496537617127 -300.47911992391477 11.555278728505952
vertex 131.53496537617121 -243.79723157775913 9.005598450802559
vertex 131.53496537617127 -300.11838906204474 11.704698343859029
endloop
endfacet
facet normal 1.0 1.3329048049007634e-31 -1.1287765179944961e-14
outer loop
vertex 131.53496537617127 -300.11838906204474 11.704698343859029
vertex 131.53496537617121 -243.79723157775913 9.005598450802559
vertex 131.53496537617127 -299.8086224483903 11.942390626490946
endloop
endfacet
facet normal 1.0 1.3329048049007634e-31 -1.1287765179944961e-14
outer loop
vertex 131.53496537617127 -299.8086224483903 11.942390626490946
vertex 131.53496537617121 -243.79723157775913 9.005598450802559
vertex 131.53496537617127 -299.57093016575834 12.252157240145392
endloop
endfacet
facet normal 1.0 1.3329048049007634e-31 -1.1287765179944961e-14
outer loop
vertex 131.53496537617127 -299.57093016575834 12.252157240145392
vertex 131.53496537617121 -243.79723157775913 9.005598450802559
vertex 131.53496537617127 -299.4215105504053 12.612888102015377
endloop
endfacet
facet normal 1.0 1.3329048049007634e-31 -1.1287765179944961e-14
outer loop
vertex 131.53496537617127 -299.4215105504053 12.612888102015377
vertex 131.53496537617121 -243.79723157775913 9.005598450802559
vertex 131.53496537617127 -299.3705463021897 13.000000000000334
endloop
endfacet
facet normal 1.0 1.3329048049007634e-31 -1.1287765179944961e-14
outer loop
vertex 131.53496537617127 -299.3705463021897 13.000000000000334
vertex 131.53496537617121 -243.79723157775913 9.005598450802559
vertex 131.53496537617113 -249.42755203195816 11.613639730932436
endloop
endfacet
facet normal 1.0 1.3329048049007634e-31 -1.1287765179944961e-14
outer loop
vertex 131.53496537617127 -299.3705463021897 13.000000000000334
vertex 131.53496537617113 -249.42755203195816 11.613639730932436
vertex 131.53496537617113 -249.76724195062135 11.80615917233062
endloop
endfacet
facet normal 1.0 1.3329048049007634e-31 -1.1287765179944961e-14
outer loop
vertex 131.53496537617127 -299.3705463021897 13.000000000000334
vertex 131.53496537617113 -249.76724195062135 11.80615917233062
vertex 131.53496537617113 -250.0455295180018 12.080036893219253
endloop
endfacet
facet normal 1.0 1.3329048049007634e-31 -1.1287765179944961e-14
outer loop
vertex 131.53496537617127 -299.3705463021897 13.000000000000334
vertex 131.53496537617113 -250.0455295180018 12.080036893219253
vertex 131.53496537617113 -250.24344989627457 12.416608579524137
endloop
endfacet
facet normal 1.0 1.3329048049007634e-31 -1.1287765179944961e-14
outer loop
vertex 131.53496537617127 -299.3705463021897 13.000000000000334
vertex 131.53496537617113 -250.24344989627457 12.416608579524137
vertex 131.53496537617113 -250.34751513873914 12.792937427034573
endloop
endfacet
facet normal 1.0 1.3329048049007634e-31 -1.1287765179944961e-14
outer loop
vertex 131.53496537617127 -299.3705463021897 13.000000000000334
vertex 131.53496537617113 -250.34751513873914 12.792937427034573
vertex 131.53496537617113 -250.35063337109764 13.183377246705524
endloop
endfacet
facet normal 1.0 1.3329048049007634e-31 -1.1287765179944961e-14
outer loop
vertex 131.53496537617113 -249.42755203195816 11.613639730932436
vertex 131.53496537617121 -243.79723157775913 9.005598450802559
vertex 131.53496537617113 -249.049609068605 11.51559845080256
endloop
endfacet
facet normal 1.0 1.3329048049007634e-31 -1.1287765179944961e-14
outer loop
vertex 131.53496537617113 -249.049609068605 11.51559845080256
vertex 131.53496537617121 -243.79723157775913 9.005598450802559
vertex 131.53496537617113 -248.65916924893398 11.518716683160967
endloop
endfacet
facet normal 1.0 1.3329048049007634e-31 -1.1287765179944961e-14
outer loop
vertex 131.53496537617113 -248.65916924893398 11.518716683160967
vertex 131.53496537617121 -243.79723157775913 9.005598450802559
vertex 131.53496537617113 -248.28284040142356 11.622781925625558
endloop
endfacet
facet normal 1.0 1.3329048049007634e-31 -1.1287765179944961e-14
outer loop
vertex 131.53496537617113 -248.28284040142356 11.622781925625558
vertex 131.53496537617121 -243.79723157775913 9.005598450802559
vertex 131.53496537617113 -247.94626871511872 11.820702303898289
endloop
endfacet
facet normal 1.0 1.3329048049007634e-31 -1.1287765179944961e-14
outer loop
vertex 131.53496537617113 -247.94626871511872 11.820702303898289
vertex 131.53496537617121 -243.79723157775913 9.005598450802559
vertex 131.53496537617113 -247.67239099423 12.098989871278787
endloop
endfacet
facet normal 1.0 1.3329048049007634e-31 -1.1287765179944961e-14
outer loop
vertex 131.53496537617113 -247.67239099423 12.098989871278787
vertex 131.53496537617121 -243.79723157775913 9.005598450802559
vertex 131.53496537617113 -247.47987155283195 12.438679789942022
endloop
endfacet
facet normal 1.0 1.3329048049007634e-31 -1.1287765179944961e-14
outer loop
vertex 131.53496537617113 -247.47987155283195 12.438679789942022
vertex 131.53496537617121 -243.79723157775913 9.005598450802559
vertex 131.53496537617113 -247.38183027270196 12.816622753295208
endloop
endfacet
facet normal 1.0 1.3329048049007634e-31 -1.1287765179944961e-14
outer loop
vertex 131.5349653761713 -305.797231577759 17.000000000000334
vertex 131.53496537617127 -300.86623182189965 14.495685519710266
vertex 131.5349653761713 -243.79723157775913 17.000000000000334
endloop
endfacet
facet normal 1.0 1.3329048049007634e-31 -1.1287765179944961e-14
outer loop
vertex 131.53496537617127 -300.86623182189965 14.495685519710266
vertex 131.5349653761713 -305.797231577759 17.000000000000334
vertex 131.53496537617127 -301.25334371988464 14.44472127149477
endloop
endfacet
facet normal 1.0 1.3329048049007634e-31 -1.1287765179944961e-14
outer loop
vertex 131.53496537617127 -301.25334371988464 14.44472127149477
vertex 131.5349653761713 -305.797231577759 17.000000000000334
vertex 131.53496537617127 -301.6140745817546 14.295301656141671
endloop
endfacet
facet normal 1.0 1.3329048049007634e-31 -1.1287765179944961e-14
outer loop
vertex 131.53496537617127 -301.6140745817546 14.295301656141671
vertex 131.5349653761713 -305.797231577759 17.000000000000334
vertex 131.53496537617127 -301.92384119540907 14.057609373509761
endloop
endfacet
facet normal 1.0 1.3329048049007634e-31 -1.1287765179944961e-14
outer loop
vertex 131.53496537617127 -301.92384119540907 14.057609373509761
vertex 131.5349653761713 -305.797231577759 17.000000000000334
vertex 131.53496537617127 -302.161533478041 13.747842759855294
endloop
endfacet
facet normal 1.0 1.3329048049007634e-31 -1.1287765179944961e-14
outer loop
vertex 131.53496537617127 -302.161533478041 13.747842759855294
vertex 131.5349653761713 -305.797231577759 17.000000000000334
vertex 131.53496537617127 -302.3109530933941 13.387111897985351
endloop
endfacet
facet normal 1.0 1.3329048049007634e-31 -1.1287765179944961e-14
outer loop
vertex 131.53496537617127 -302.3109530933941 13.387111897985351
vertex 131.5349653761713 -305.797231577759 17.000000000000334
vertex 131.53496537617127 -302.3619173416096 13.000000000000362
endloop
endfacet
facet normal 1.0 1.3329048049007634e-31 -1.1287765179944961e-14
outer loop
vertex 131.5349653761713 -243.79723157775913 17.000000000000334
vertex 131.53496537617127 -300.86623182189965 14.495685519710266
vertex 131.53496537617127 -300.47911992391477 14.444721271494776
endloop
endfacet
facet normal 1.0 1.3329048049007634e-31 -1.1287765179944961e-14
outer loop
vertex 131.5349653761713 -243.79723157775913 17.000000000000334
vertex 131.53496537617127 -300.47911992391477 14.444721271494776
vertex 131.53496537617127 -300.1183890620448 14.295301656141671
endloop
endfacet
facet normal 1.0 1.3329048049007634e-31 -1.1287765179944961e-14
outer loop
vertex 131.5349653761713 -243.79723157775913 17.000000000000334
vertex 131.53496537617127 -300.1183890620448 14.295301656141671
vertex 131.53496537617127 -299.8086224483903 14.057609373509745
endloop
endfacet
facet normal 1.0 1.3329048049007634e-31 -1.1287765179944961e-14
outer loop
vertex 131.5349653761713 -243.79723157775913 17.000000000000334
vertex 131.53496537617127 -299.8086224483903 14.057609373509745
vertex 131.53496537617127 -299.57093016575834 13.7478427598553
endloop
endfacet
facet normal 1.0 1.3329048049007634e-31 -1.1287765179944961e-14
outer loop
vertex 131.5349653761713 -243.79723157775913 17.000000000000334
vertex 131.53496537617127 -299.57093016575834 13.7478427598553
vertex 131.53496537617127 -299.4215105504053 13.387111897985351
endloop
endfacet
facet normal 1.0 1.3329048049007634e-31 -1.1287765179944961e-14
outer loop
vertex 131.5349653761713 -243.79723157775913 17.000000000000334
vertex 131.53496537617127 -299.4215105504053 13.387111897985351
vertex 131.53496537617127 -299.3705463021897 13.000000000000334
endloop
endfacet
facet normal 1.0 1.3329048049007634e-31 -1.1287765179944961e-14
outer loop
vertex 131.5349653761713 -243.79723157775913 17.000000000000334
vertex 131.53496537617127 -299.3705463021897 13.000000000000334
vertex 131.53496537617113 -249.44962324237608 14.377218074375175
endloop
endfacet
facet normal 1.0 1.3329048049007634e-31 -1.1287765179944961e-14
outer loop
vertex 131.53496537617113 -249.44962324237608 14.377218074375175
vertex 131.53496537617127 -299.3705463021897 13.000000000000334
vertex 131.53496537617113 -249.78619492868086 14.17929769610244
endloop
endfacet
facet normal 1.0 1.3329048049007634e-31 -1.1287765179944961e-14
outer loop
vertex 131.53496537617113 -249.78619492868086 14.17929769610244
vertex 131.53496537617127 -299.3705463021897 13.000000000000334
vertex 131.53496537617113 -250.06007264956952 13.90101012872192
endloop
endfacet
facet normal 1.0 1.3329048049007634e-31 -1.1287765179944961e-14
outer loop
vertex 131.53496537617113 -250.06007264956952 13.90101012872192
vertex 131.53496537617127 -299.3705463021897 13.000000000000334
vertex 131.53496537617113 -250.25259209096777 13.561320210058645
endloop
endfacet
facet normal 1.0 1.3329048049007634e-31 -1.1287765179944961e-14
outer loop
vertex 131.53496537617113 -250.25259209096777 13.561320210058645
vertex 131.53496537617127 -299.3705463021897 13.000000000000334
vertex 131.53496537617113 -250.35063337109764 13.183377246705524
endloop
endfacet
facet normal 1.0 1.3329048049007634e-31 -1.1287765179944961e-14
outer loop
vertex 131.5349653761713 -243.79723157775913 17.000000000000334
vertex 131.53496537617113 -249.44962324237608 14.377218074375175
vertex 131.53496537617113 -249.07329439486568 14.481283316839722
endloop
endfacet
facet normal 1.0 1.3329048049007634e-31 -1.1287765179944961e-14
outer loop
vertex 131.5349653761713 -243.79723157775913 17.000000000000334
vertex 131.53496537617113 -249.07329439486568 14.481283316839722
vertex 131.53496537617113 -248.68285457519465 14.48440154919813
endloop
endfacet
facet normal 1.0 1.3329048049007634e-31 -1.1287765179944961e-14
outer loop
vertex 131.5349653761713 -243.79723157775913 17.000000000000334
vertex 131.53496537617113 -248.68285457519465 14.48440154919813
vertex 131.53496537617113 -248.3049116118415 14.386360269068254
endloop
endfacet
facet normal 1.0 1.3329048049007634e-31 -1.1287765179944961e-14
outer loop
vertex 131.5349653761713 -243.79723157775913 17.000000000000334
vertex 131.53496537617113 -248.3049116118415 14.386360269068254
vertex 131.53496537617113 -247.96522169317822 14.193840827670064
endloop
endfacet
facet normal 1.0 1.3329048049007634e-31 -1.1287765179944961e-14
outer loop
vertex 131.5349653761713 -243.79723157775913 17.000000000000334
vertex 131.53496537617113 -247.96522169317822 14.193840827670064
vertex 131.53496537617113 -247.6869341257978 13.919963106781438
endloop
endfacet
facet normal 1.0 1.3329048049007634e-31 -1.1287765179944961e-14
outer loop
vertex 131.5349653761713 -243.79723157775913 17.000000000000334
vertex 131.53496537617113 -247.6869341257978 13.919963106781438
vertex 131.53496537617113 -247.48901374752504 13.583391420476595
endloop
endfacet
facet normal 1.0 1.3329048049007634e-31 -1.1287765179944961e-14
outer loop
vertex 131.5349653761713 -243.79723157775913 17.000000000000334
vertex 131.53496537617113 -247.48901374752504 13.583391420476595
vertex 131.53496537617113 -247.38494850506046 13.207062572966176
endloop
endfacet
facet normal 1.0 1.3329048049007634e-31 -1.1287765179944961e-14
outer loop
vertex 131.5349653761713 -243.79723157775913 17.000000000000334
vertex 131.53496537617113 -247.38494850506046 13.207062572966176
vertex 131.53496537617113 -247.38472238585027 13.178749755475993
endloop
endfacet
facet normal 1.0 1.3329048049007634e-31 -1.1287765179944961e-14
outer loop
vertex 131.5349653761713 -243.79723157775913 17.000000000000334
vertex 131.53496537617113 -247.38472238585027 13.178749755475993
vertex 131.53496537617113 -247.38183027270196 12.816622753295208
endloop
endfacet
facet normal 1.0 1.3329048049007634e-31 -1.1287765179944961e-14
outer loop
vertex 131.5349653761713 -243.79723157775913 17.000000000000334
vertex 131.53496537617113 -247.38183027270196 12.816622753295208
vertex 131.53496537617121 -243.79723157775913 9.005598450802559
endloop
endfacet
facet normal -1.0 -1.3329048049007634e-31 1.1287765179944961e-14
outer loop
vertex 128.5349653761713 -305.797231577759 17.00000000000037
vertex 128.53496537617127 -302.161533478041 13.747842759855327
vertex 128.53496537617121 -305.797231577759 9.005598450802593
endloop
endfacet
facet normal -1.0 -1.3329048049007634e-31 1.1287765179944961e-14
outer loop
vertex 128.53496537617127 -302.161533478041 13.747842759855327
vertex 128.5349653761713 -305.797231577759 17.00000000000037
vertex 128.53496537617127 -301.92384119540907 14.057609373509795
endloop
endfacet
facet normal -1.0 -1.3329048049007634e-31 1.1287765179944961e-14
outer loop
vertex 128.53496537617127 -301.92384119540907 14.057609373509795
vertex 128.5349653761713 -305.797231577759 17.00000000000037
vertex 128.53496537617127 -301.6140745817546 14.295301656141705
endloop
endfacet
facet normal -1.0 -1.3329048049007634e-31 1.1287765179944961e-14
outer loop
vertex 128.53496537617127 -301.6140745817546 14.295301656141705
vertex 128.5349653761713 -305.797231577759 17.00000000000037
vertex 128.53496537617127 -301.25334371988464 14.444721271494803
endloop
endfacet
facet normal -1.0 -1.3329048049007634e-31 1.1287765179944961e-14
outer loop
vertex 128.53496537617127 -301.25334371988464 14.444721271494803
vertex 128.5349653761713 -305.797231577759 17.00000000000037
vertex 128.53496537617127 -300.86623182189965 14.4956855197103
endloop
endfacet
facet normal -1.0 -1.3329048049007634e-31 1.1287765179944961e-14
outer loop
vertex 128.53496537617127 -300.86623182189965 14.4956855197103
vertex 128.5349653761713 -305.797231577759 17.00000000000037
vertex 128.5349653761713 -243.79723157775913 17.00000000000037
endloop
endfacet
facet normal -1.0 -1.3329048049007634e-31 1.1287765179944961e-14
outer loop
vertex 128.53496537617121 -305.797231577759 9.005598450802593
vertex 128.53496537617127 -302.161533478041 13.747842759855327
vertex 128.53496537617127 -302.3109530933941 13.387111897985385
endloop
endfacet
facet normal -1.0 -1.3329048049007634e-31 1.1287765179944961e-14
outer loop
vertex 128.53496537617121 -305.797231577759 9.005598450802593
vertex 128.53496537617127 -302.3109530933941 13.387111897985385
vertex 128.53496537617127 -302.3619173416096 13.000000000000396
endloop
endfacet
facet normal -1.0 -1.3329048049007634e-31 1.1287765179944961e-14
outer loop
vertex 128.53496537617127 -300.86623182189965 14.4956855197103
vertex 128.5349653761713 -243.79723157775913 17.00000000000037
vertex 128.53496537617127 -300.47911992391477 14.44472127149481
endloop
endfacet
facet normal -1.0 -1.3329048049007634e-31 1.1287765179944961e-14
outer loop
vertex 128.53496537617127 -300.47911992391477 14.44472127149481
vertex 128.5349653761713 -243.79723157775913 17.00000000000037
vertex 128.53496537617127 -300.1183890620448 14.295301656141705
endloop
endfacet
facet normal -1.0 -1.3329048049007634e-31 1.1287765179944961e-14
outer loop
vertex 128.53496537617127 -300.1183890620448 14.295301656141705
vertex 128.5349653761713 -243.79723157775913 17.00000000000037
vertex 128.53496537617127 -299.8086224483903 14.057609373509779
endloop
endfacet
facet normal -1.0 -1.3329048049007634e-31 1.1287765179944961e-14
outer loop
vertex 128.53496537617127 -299.8086224483903 14.057609373509779
vertex 128.5349653761713 -243.79723157775913 17.00000000000037
vertex 128.53496537617127 -299.57093016575834 13.747842759855335
endloop
endfacet
facet normal -1.0 -1.3329048049007634e-31 1.1287765179944961e-14
outer loop
vertex 128.53496537617127 -299.57093016575834 13.747842759855335
vertex 128.5349653761713 -243.79723157775913 17.00000000000037
vertex 128.53496537617127 -299.4215105504053 13.387111897985385
endloop
endfacet
facet normal -1.0 -1.3329048049007634e-31 1.1287765179944961e-14
outer loop
vertex 128.53496537617127 -299.4215105504053 13.387111897985385
vertex 128.5349653761713 -243.79723157775913 17.00000000000037
vertex 128.53496537617127 -299.3705463021897 13.000000000000368
endloop
endfacet
facet normal -1.0 -1.3329048049007634e-31 1.1287765179944961e-14
outer loop
vertex 128.53496537617127 -299.3705463021897 13.000000000000368
vertex 128.5349653761713 -243.79723157775913 17.00000000000037
vertex 128.53496537617113 -249.44962324237608 14.37721807437521
endloop
endfacet
facet normal -1.0 -1.3329048049007634e-31 1.1287765179944961e-14
outer loop
vertex 128.53496537617127 -299.3705463021897 13.000000000000368
vertex 128.53496537617113 -249.44962324237608 14.37721807437521
vertex 128.53496537617113 -249.78619492868086 14.179297696102473
endloop
endfacet
facet normal -1.0 -1.3329048049007634e-31 1.1287765179944961e-14
outer loop
vertex 128.53496537617127 -299.3705463021897 13.000000000000368
vertex 128.53496537617113 -249.78619492868086 14.179297696102473
vertex 128.53496537617113 -250.06007264956952 13.901010128721955
endloop
endfacet
facet normal -1.0 -1.3329048049007634e-31 1.1287765179944961e-14
outer loop
vertex 128.53496537617127 -299.3705463021897 13.000000000000368
vertex 128.53496537617113 -250.06007264956952 13.901010128721955
vertex 128.53496537617113 -250.25259209096777 13.561320210058678
endloop
endfacet
facet normal -1.0 -1.3329048049007634e-31 1.1287765179944961e-14
outer loop
vertex 128.53496537617127 -299.3705463021897 13.000000000000368
vertex 128.53496537617113 -250.25259209096777 13.561320210058678
vertex 128.53496537617113 -250.35063337109764 13.183377246705557
endloop
endfacet
facet normal -1.0 -1.3329048049007634e-31 1.1287765179944961e-14
outer loop
vertex 128.53496537617113 -249.44962324237608 14.37721807437521
vertex 128.5349653761713 -243.79723157775913 17.00000000000037
vertex 128.53496537617113 -249.07329439486568 14.481283316839756
endloop
endfacet
facet normal -1.0 -1.3329048049007634e-31 1.1287765179944961e-14
outer loop
vertex 128.53496537617113 -249.07329439486568 14.481283316839756
vertex 128.5349653761713 -243.79723157775913 17.00000000000037
vertex 128.53496537617113 -248.68285457519465 14.484401549198164
endloop
endfacet
facet normal -1.0 -1.3329048049007634e-31 1.1287765179944961e-14
outer loop
vertex 128.53496537617113 -248.68285457519465 14.484401549198164
vertex 128.5349653761713 -243.79723157775913 17.00000000000037
vertex 128.53496537617113 -248.3049116118415 14.386360269068287
endloop
endfacet
facet normal -1.0 -1.3329048049007634e-31 1.1287765179944961e-14
outer loop
vertex 128.53496537617113 -248.3049116118415 14.386360269068287
vertex 128.5349653761713 -243.79723157775913 17.00000000000037
vertex 128.53496537617113 -247.96522169317822 14.1938408276701
endloop
endfacet
facet normal -1.0 -1.3329048049007634e-31 1.1287765179944961e-14
outer loop
vertex 128.53496537617113 -247.96522169317822 14.1938408276701
vertex 128.5349653761713 -243.79723157775913 17.00000000000037
vertex 128.53496537617113 -247.6869341257978 13.919963106781472
endloop
endfacet
facet normal -1.0 -1.3329048049007634e-31 1.1287765179944961e-14
outer loop
vertex 128.53496537617113 -247.6869341257978 13.919963106781472
vertex 128.5349653761713 -243.79723157775913 17.00000000000037
vertex 128.53496537617113 -247.48901374752504 13.583391420476628
endloop
endfacet
facet normal -1.0 -1.3329048049007634e-31 1.1287765179944961e-14
outer loop
vertex 128.53496537617113 -247.48901374752504 13.583391420476628
vertex 128.5349653761713 -243.79723157775913 17.00000000000037
vertex 128.53496537617113 -247.38494850506046 13.20706257296621
endloop
endfacet
facet normal -1.0 -1.3329048049007634e-31 1.1287765179944961e-14
outer loop
vertex 128.53496537617113 -247.38494850506046 13.20706257296621
vertex 128.5349653761713 -243.79723157775913 17.00000000000037
vertex 128.53496537617113 -247.38472238585027 13.178749755476026
endloop
endfacet
facet normal -1.0 -1.3329048049007634e-31 1.1287765179944961e-14
outer loop
vertex 128.53496537617113 -247.38472238585027 13.178749755476026
vertex 128.5349653761713 -243.79723157775913 17.00000000000037
vertex 128.53496537617113 -247.38183027270196 12.816622753295244
endloop
endfacet
facet normal -1.0 -1.3329048049007634e-31 1.1287765179944961e-14
outer loop
vertex 128.53496537617121 -305.797231577759 9.005598450802593
vertex 128.53496537617127 -300.86623182189965 11.504314480290459
vertex 128.53496537617121 -243.79723157775913 9.005598450802593
endloop
endfacet
facet normal -1.0 -1.3329048049007634e-31 1.1287765179944961e-14
outer loop
vertex 128.53496537617127 -300.86623182189965 11.504314480290459
vertex 128.53496537617121 -305.797231577759 9.005598450802593
vertex 128.53496537617127 -301.25334371988464 11.555278728505986
endloop
endfacet
facet normal -1.0 -1.3329048049007634e-31 1.1287765179944961e-14
outer loop
vertex 128.53496537617127 -301.25334371988464 11.555278728505986
vertex 128.53496537617121 -305.797231577759 9.005598450802593
vertex 128.53496537617127 -301.61407458175466 11.70469834385906
endloop
endfacet
facet normal -1.0 -1.3329048049007634e-31 1.1287765179944961e-14
outer loop
vertex 128.53496537617127 -301.61407458175466 11.70469834385906
vertex 128.53496537617121 -305.797231577759 9.005598450802593
vertex 128.53496537617127 -301.92384119540907 11.942390626490958
endloop
endfacet
facet normal -1.0 -1.3329048049007634e-31 1.1287765179944961e-14
outer loop
vertex 128.53496537617127 -301.92384119540907 11.942390626490958
vertex 128.53496537617121 -305.797231577759 9.005598450802593
vertex 128.53496537617127 -302.161533478041 12.252157240145422
endloop
endfacet
facet normal -1.0 -1.3329048049007634e-31 1.1287765179944961e-14
outer loop
vertex 128.53496537617127 -302.161533478041 12.252157240145422
vertex 128.53496537617121 -305.797231577759 9.005598450802593
vertex 128.53496537617127 -302.31095309339406 12.612888102015413
endloop
endfacet
facet normal -1.0 -1.3329048049007634e-31 1.1287765179944961e-14
outer loop
vertex 128.53496537617127 -302.31095309339406 12.612888102015413
vertex 128.53496537617121 -305.797231577759 9.005598450802593
vertex 128.53496537617127 -302.3619173416096 13.000000000000396
endloop
endfacet
facet normal -1.0 -1.3329048049007634e-31 1.1287765179944961e-14
outer loop
vertex 128.53496537617121 -243.79723157775913 9.005598450802593
vertex 128.53496537617127 -300.86623182189965 11.504314480290459
vertex 128.53496537617127 -300.47911992391477 11.555278728505986
endloop
endfacet
facet normal -1.0 -1.3329048049007634e-31 1.1287765179944961e-14
outer loop
vertex 128.53496537617121 -243.79723157775913 9.005598450802593
vertex 128.53496537617127 -300.47911992391477 11.555278728505986
vertex 128.53496537617127 -300.11838906204474 11.704698343859063
endloop
endfacet
facet normal -1.0 -1.3329048049007634e-31 1.1287765179944961e-14
outer loop
vertex 128.53496537617121 -243.79723157775913 9.005598450802593
vertex 128.53496537617127 -300.11838906204474 11.704698343859063
vertex 128.53496537617127 -299.8086224483903 11.94239062649098
endloop
endfacet
facet normal -1.0 -1.3329048049007634e-31 1.1287765179944961e-14
outer loop
vertex 128.53496537617121 -243.79723157775913 9.005598450802593
vertex 128.53496537617127 -299.8086224483903 11.94239062649098
vertex 128.53496537617127 -299.57093016575834 12.252157240145426
endloop
endfacet
facet normal -1.0 -1.3329048049007634e-31 1.1287765179944961e-14
outer loop
vertex 128.53496537617121 -243.79723157775913 9.005598450802593
vertex 128.53496537617127 -299.57093016575834 12.252157240145426
vertex 128.53496537617127 -299.4215105504053 12.612888102015411
endloop
endfacet
facet normal -1.0 -1.3329048049007634e-31 1.1287765179944961e-14
outer loop
vertex 128.53496537617121 -243.79723157775913 9.005598450802593
vertex 128.53496537617127 -299.4215105504053 12.612888102015411
vertex 128.53496537617127 -299.3705463021897 13.000000000000368
endloop
endfacet
facet normal -1.0 -1.3329048049007634e-31 1.1287765179944961e-14
outer loop
vertex 128.53496537617121 -243.79723157775913 9.005598450802593
vertex 128.53496537617127 -299.3705463021897 13.000000000000368
vertex 128.53496537617113 -249.42755203195816 11.61363973093247
endloop
endfacet
facet normal -1.0 -1.3329048049007634e-31 1.1287765179944961e-14
outer loop
vertex 128.53496537617113 -249.42755203195816 11.61363973093247
vertex 128.53496537617127 -299.3705463021897 13.000000000000368
vertex 128.53496537617113 -249.76724195062135 11.806159172330656
endloop
endfacet
facet normal -1.0 -1.3329048049007634e-31 1.1287765179944961e-14
outer loop
vertex 128.53496537617113 -249.76724195062135 11.806159172330656
vertex 128.53496537617127 -299.3705463021897 13.000000000000368
vertex 128.53496537617113 -250.0455295180018 12.080036893219287
endloop
endfacet
facet normal -1.0 -1.3329048049007634e-31 1.1287765179944961e-14
outer loop
vertex 128.53496537617113 -250.0455295180018 12.080036893219287
vertex 128.53496537617127 -299.3705463021897 13.000000000000368
vertex 128.53496537617113 -250.24344989627457 12.416608579524171
endloop
endfacet
facet normal -1.0 -1.3329048049007634e-31 1.1287765179944961e-14
outer loop
vertex 128.53496537617113 -250.24344989627457 12.416608579524171
vertex 128.53496537617127 -299.3705463021897 13.000000000000368
vertex 128.53496537617113 -250.34751513873914 12.792937427034607
endloop
endfacet
facet normal -1.0 -1.3329048049007634e-31 1.1287765179944961e-14
outer loop
vertex 128.53496537617113 -250.34751513873914 12.792937427034607
vertex 128.53496537617127 -299.3705463021897 13.000000000000368
vertex 128.53496537617113 -250.35063337109764 13.183377246705557
endloop
endfacet
facet normal -1.0 -1.3329048049007634e-31 1.1287765179944961e-14
outer loop
vertex 128.53496537617121 -243.79723157775913 9.005598450802593
vertex 128.53496537617113 -249.42755203195816 11.61363973093247
vertex 128.53496537617113 -249.049609068605 11.515598450802594
endloop
endfacet
facet normal -1.0 -1.3329048049007634e-31 1.1287765179944961e-14
outer loop
vertex 128.53496537617121 -243.79723157775913 9.005598450802593
vertex 128.53496537617113 -249.049609068605 11.515598450802594
vertex 128.53496537617113 -248.65916924893398 11.518716683161001
endloop
endfacet
facet normal -1.0 -1.3329048049007634e-31 1.1287765179944961e-14
outer loop
vertex 128.53496537617121 -243.79723157775913 9.005598450802593
vertex 128.53496537617113 -248.65916924893398 11.518716683161001
vertex 128.53496537617113 -248.28284040142356 11.622781925625592
endloop
endfacet
facet normal -1.0 -1.3329048049007634e-31 1.1287765179944961e-14
outer loop
vertex 128.53496537617121 -243.79723157775913 9.005598450802593
vertex 128.53496537617113 -248.28284040142356 11.622781925625592
vertex 128.53496537617113 -247.94626871511872 11.820702303898322
endloop
endfacet
facet normal -1.0 -1.3329048049007634e-31 1.1287765179944961e-14
outer loop
vertex 128.53496537617121 -243.79723157775913 9.005598450802593
vertex 128.53496537617113 -247.94626871511872 11.820702303898322
vertex 128.53496537617113 -247.67239099423 12.098989871278821
endloop
endfacet
facet normal -1.0 -1.3329048049007634e-31 1.1287765179944961e-14
outer loop
vertex 128.53496537617121 -243.79723157775913 9.005598450802593
vertex 128.53496537617113 -247.67239099423 12.098989871278821
vertex 128.53496537617113 -247.47987155283195 12.438679789942055
endloop
endfacet
facet normal -1.0 -1.3329048049007634e-31 1.1287765179944961e-14
outer loop
vertex 128.53496537617121 -243.79723157775913 9.005598450802593
vertex 128.53496537617113 -247.47987155283195 12.438679789942055
vertex 128.53496537617113 -247.38183027270196 12.816622753295244
endloop
endfacet
facet normal -1.0 -1.3329048049007634e-31 1.1287765179944961e-14
outer loop
vertex 128.53496537617121 -243.79723157775913 9.005598450802593
vertex 128.53496537617113 -247.38183027270196 12.816622753295244
vertex 128.5349653761713 -243.79723157775913 17.00000000000037
endloop
endfacet
facet normal 5.721771695350544e-15 0.8620046829038609 0.5069003123414056
outer loop
vertex 128.53496537617113 -250.0455295180018 12.080036893219287
vertex 131.53496537617113 -250.24344989627457 12.416608579524137
vertex 131.53496537617113 -250.0455295180018 12.080036893219253
endloop
endfacet
facet normal 5.721771695350544e-15 0.8620046829038609 0.5069003123414056
outer loop
vertex 131.53496537617113 -250.24344989627457 12.416608579524137
vertex 128.53496537617113 -250.0455295180018 12.080036893219287
vertex 128.53496537617113 -250.24344989627457 12.416608579524171
endloop
endfacet
facet normal -2.8343206824822015e-15 0.9679620049380707 -0.2510967084536765
outer loop
vertex 128.53496537617113 -250.35063337109764 13.183377246705557
vertex 131.53496537617113 -250.25259209096777 13.561320210058645
vertex 131.53496537617113 -250.35063337109764 13.183377246705524
endloop
endfacet
facet normal -2.8343206824822015e-15 0.9679620049380707 -0.2510967084536765
outer loop
vertex 131.53496537617113 -250.25259209096777 13.561320210058645
vertex 128.53496537617113 -250.35063337109764 13.183377246705557
vertex 128.53496537617113 -250.25259209096777 13.561320210058678
endloop
endfacet
facet normal -5.565633514903579e-15 0.8699908891257981 -0.4930677974052891
outer loop
vertex 128.53496537617113 -250.25259209096777 13.561320210058678
vertex 131.53496537617113 -250.06007264956952 13.90101012872192
vertex 131.53496537617113 -250.25259209096777 13.561320210058645
endloop
endfacet
facet normal -5.565633514903579e-15 0.8699908891257981 -0.4930677974052891
outer loop
vertex 131.53496537617113 -250.06007264956952 13.90101012872192
vertex 128.53496537617113 -250.25259209096777 13.561320210058678
vertex 128.53496537617113 -250.06007264956952 13.901010128721955
endloop
endfacet
facet normal -1.1287765179944961e-14 0.0 -1.0
outer loop
vertex 131.53496537617121 -243.79723157775913 9.005598450802559
vertex 128.53496537617121 -305.797231577759 9.005598450802593
vertex 128.53496537617121 -243.79723157775913 9.005598450802593
endloop
endfacet
facet normal -1.1287765179944961e-14 0.0 -1.0
outer loop
vertex 128.53496537617121 -305.797231577759 9.005598450802593
vertex 131.53496537617121 -243.79723157775913 9.005598450802559
vertex 131.53496537617121 -305.797231577759 9.005598450802559
endloop
endfacet
facet normal 1.1287405210253004e-14 -0.007986206222037629 0.9999681097465956
outer loop
vertex 131.53496537617113 -249.049609068605 11.51559845080256
vertex 128.53496537617113 -248.65916924893398 11.518716683161001
vertex 128.53496537617113 -249.049609068605 11.515598450802594
endloop
endfacet
facet normal 1.1287405210253004e-14 -0.007986206222037629 0.9999681097465956
outer loop
vertex 128.53496537617113 -248.65916924893398 11.518716683161001
vertex 131.53496537617113 -249.049609068605 11.51559845080256
vertex 131.53496537617113 -248.65916924893398 11.518716683160967
endloop
endfacet
facet normal 9.820252865144195e-15 0.49306779740518714 0.8699908891258561
outer loop
vertex 131.53496537617113 -249.76724195062135 11.80615917233062
vertex 128.53496537617113 -249.42755203195816 11.61363973093247
vertex 128.53496537617113 -249.76724195062135 11.806159172330656
endloop
endfacet
facet normal 9.820252865144195e-15 0.49306779740518714 0.8699908891258561
outer loop
vertex 128.53496537617113 -249.42755203195816 11.61363973093247
vertex 131.53496537617113 -249.76724195062135 11.80615917233062
vertex 131.53496537617113 -249.42755203195816 11.613639730932436
endloop
endfacet
facet normal 9.014642051600979e-17 0.9999681097465934 0.007986206222306395
outer loop
vertex 128.53496537617113 -250.34751513873914 12.792937427034607
vertex 131.53496537617113 -250.35063337109764 13.183377246705524
vertex 131.53496537617113 -250.34751513873914 12.792937427034573
endloop
endfacet
facet normal 9.014642051600979e-17 0.9999681097465934 0.007986206222306395
outer loop
vertex 131.53496537617113 -250.35063337109764 13.183377246705524
vertex 128.53496537617113 -250.34751513873914 12.792937427034607
vertex 128.53496537617113 -250.35063337109764 13.183377246705557
endloop
endfacet
facet normal -7.917657620926001e-15 0.7127313319476549 -0.7014371307965681
outer loop
vertex 128.53496537617113 -250.06007264956952 13.901010128721955
vertex 131.53496537617113 -249.78619492868086 14.17929769610244
vertex 131.53496537617113 -250.06007264956952 13.90101012872192
endloop
endfacet
facet normal -7.917657620926001e-15 0.7127313319476549 -0.7014371307965681
outer loop
vertex 131.53496537617113 -249.78619492868086 14.17929769610244
vertex 128.53496537617113 -250.06007264956952 13.901010128721955
vertex 128.53496537617113 -249.78619492868086 14.179297696102473
endloop
endfacet
facet normal -1.0879464593896915e-14 0.26652487414141857 -0.9638280404013474
outer loop
vertex 131.53496537617113 -249.07329439486568 14.481283316839722
vertex 128.53496537617113 -249.44962324237608 14.37721807437521
vertex 128.53496537617113 -249.07329439486568 14.481283316839756
endloop
endfacet
facet normal -1.0879464593896915e-14 0.26652487414141857 -0.9638280404013474
outer loop
vertex 128.53496537617113 -249.44962324237608 14.37721807437521
vertex 131.53496537617113 -249.07329439486568 14.481283316839722
vertex 131.53496537617113 -249.44962324237608 14.377218074375175
endloop
endfacet
facet normal -1.1287405210253004e-14 0.007986206222037629 -0.9999681097465956
outer loop
vertex 131.53496537617113 -248.68285457519465 14.48440154919813
vertex 128.53496537617113 -249.07329439486568 14.481283316839756
vertex 128.53496537617113 -248.68285457519465 14.484401549198164
endloop
endfacet
facet normal -1.1287405210253004e-14 0.007986206222037629 -0.9999681097465956
outer loop
vertex 128.53496537617113 -249.07329439486568 14.481283316839756
vertex 131.53496537617113 -248.68285457519465 14.48440154919813
vertex 131.53496537617113 -249.07329439486568 14.481283316839722
endloop
endfacet
facet normal 3.0084701939227585e-15 0.9638280404013463 0.2665248741414222
outer loop
vertex 128.53496537617113 -250.24344989627457 12.416608579524171
vertex 131.53496537617113 -250.34751513873914 12.792937427034573
vertex 131.53496537617113 -250.24344989627457 12.416608579524137
endloop
endfacet
facet normal 3.0084701939227585e-15 0.9638280404013463 0.2665248741414222
outer loop
vertex 131.53496537617113 -250.34751513873914 12.792937427034573
vertex 128.53496537617113 -250.24344989627457 12.416608579524171
vertex 128.53496537617113 -250.34751513873914 12.792937427034607
endloop
endfacet
facet normal -1.0926127814849624e-14 -0.25109670845369103 -0.9679620049380668
outer loop
vertex 131.53496537617113 -248.3049116118415 14.386360269068254
vertex 128.53496537617113 -248.68285457519465 14.484401549198164
vertex 128.53496537617113 -248.3049116118415 14.386360269068287
endloop
endfacet
facet normal -1.0926127814849624e-14 -0.25109670845369103 -0.9679620049380668
outer loop
vertex 128.53496537617113 -248.68285457519465 14.484401549198164
vertex 131.53496537617113 -248.3049116118415 14.386360269068254
vertex 131.53496537617113 -248.68285457519465 14.48440154919813
endloop
endfacet
facet normal -9.730106444631298e-15 0.5069003123414658 -0.8620046829038254
outer loop
vertex 131.53496537617113 -249.44962324237608 14.377218074375175
vertex 128.53496537617113 -249.78619492868086 14.179297696102473
vertex 128.53496537617113 -249.44962324237608 14.37721807437521
endloop
endfacet
facet normal -9.730106444631298e-15 0.5069003123414658 -0.8620046829038254
outer loop
vertex 128.53496537617113 -249.78619492868086 14.179297696102473
vertex 131.53496537617113 -249.44962324237608 14.377218074375175
vertex 131.53496537617113 -249.78619492868086 14.17929769610244
endloop
endfacet
facet normal 1.1287765179944961e-14 0.0 1.0
outer loop
vertex 131.5349653761713 -305.797231577759 17.000000000000334
vertex 128.5349653761713 -243.79723157775913 17.00000000000037
vertex 128.5349653761713 -305.797231577759 17.00000000000037
endloop
endfacet
facet normal 1.1287765179944961e-14 0.0 1.0
outer loop
vertex 128.5349653761713 -243.79723157775913 17.00000000000037
vertex 131.5349653761713 -305.797231577759 17.000000000000334
vertex 131.5349653761713 -243.79723157775913 17.000000000000334
endloop
endfacet
facet normal 8.045143911413632e-15 0.7014371307966492 0.7127313319475751
outer loop
vertex 131.53496537617113 -250.0455295180018 12.080036893219253
vertex 128.53496537617113 -249.76724195062135 11.806159172330656
vertex 128.53496537617113 -250.0455295180018 12.080036893219287
endloop
endfacet
facet normal 8.045143911413632e-15 0.7014371307966492 0.7127313319475751
outer loop
vertex 128.53496537617113 -249.76724195062135 11.806159172330656
vertex 131.53496537617113 -250.0455295180018 12.080036893219253
vertex 131.53496537617113 -249.76724195062135 11.80615917233062
endloop
endfacet
facet normal -1.3329048049007636e-31 1.0 1.5045516444940168e-45
outer loop
vertex 128.53496537617121 -243.79723157775913 9.005598450802593
vertex 131.5349653761713 -243.79723157775913 17.000000000000334
vertex 131.53496537617121 -243.79723157775913 9.005598450802559
endloop
endfacet
facet normal -1.3329048049007636e-31 1.0 1.5045516444940168e-45
outer loop
vertex 131.5349653761713 -243.79723157775913 17.000000000000334
vertex 128.53496537617121 -243.79723157775913 9.005598450802593
vertex 128.5349653761713 -243.79723157775913 17.00000000000037
endloop
endfacet
facet normal 1.3329048049007636e-31 -1.0 -1.5045516444940168e-45
outer loop
vertex 131.5349653761713 -305.797231577759 17.000000000000334
vertex 128.53496537617121 -305.797231577759 9.005598450802593
vertex 131.53496537617121 -305.797231577759 9.005598450802559
endloop
endfacet
facet normal 1.3329048049007636e-31 -1.0 -1.5045516444940168e-45
outer loop
vertex 128.53496537617121 -305.797231577759 9.005598450802593
vertex 131.5349653761713 -305.797231577759 17.000000000000334
vertex 128.5349653761713 -305.797231577759 17.00000000000037
endloop
endfacet
facet normal 1.0926127814849633e-14 0.2510967084536876 0.9679620049380677
outer loop
vertex 131.53496537617113 -249.42755203195816 11.613639730932436
vertex 128.53496537617113 -249.049609068605 11.515598450802594
vertex 128.53496537617113 -249.42755203195816 11.61363973093247
endloop
endfacet
facet normal 1.0926127814849633e-14 0.2510967084536876 0.9679620049380677
outer loop
vertex 128.53496537617113 -249.049609068605 11.515598450802594
vertex 131.53496537617113 -249.42755203195816 11.613639730932436
vertex 131.53496537617113 -249.049609068605 11.51559845080256
endloop
endfacet
facet normal -8.9551862099327e-15 -0.6087614290086896 -0.7933533402912591
outer loop
vertex 131.53496537617127 -299.8086224483903 14.057609373509745
vertex 128.53496537617127 -300.1183890620448 14.295301656141705
vertex 128.53496537617127 -299.8086224483903 14.057609373509779
endloop
endfacet
facet normal -8.9551862099327e-15 -0.6087614290086896 -0.7933533402912591
outer loop
vertex 128.53496537617127 -300.1183890620448 14.295301656141705
vertex 131.53496537617127 -299.8086224483903 14.057609373509745
vertex 131.53496537617127 -300.1183890620448 14.295301656141671
endloop
endfacet
facet normal -4.319640722791146e-15 -0.923879532511336 -0.38268343236497127
outer loop
vertex 131.53496537617127 -299.57093016575834 13.7478427598553
vertex 128.53496537617127 -299.4215105504053 13.387111897985385
vertex 131.53496537617127 -299.4215105504053 13.387111897985351
endloop
endfacet
facet normal -4.319640722791146e-15 -0.923879532511336 -0.38268343236497127
outer loop
vertex 128.53496537617127 -299.4215105504053 13.387111897985385
vertex 131.53496537617127 -299.57093016575834 13.7478427598553
vertex 128.53496537617127 -299.57093016575834 13.747842759855335
endloop
endfacet
facet normal 7.917657620927612e-15 -0.7127313319475145 0.7014371307967108
outer loop
vertex 131.53496537617113 -247.67239099423 12.098989871278787
vertex 128.53496537617113 -247.94626871511872 11.820702303898322
vertex 131.53496537617113 -247.94626871511872 11.820702303898289
endloop
endfacet
facet normal 7.917657620927612e-15 -0.7127313319475145 0.7014371307967108
outer loop
vertex 128.53496537617113 -247.94626871511872 11.820702303898322
vertex 131.53496537617113 -247.67239099423 12.098989871278787
vertex 128.53496537617113 -247.67239099423 12.098989871278821
endloop
endfacet
facet normal 6.871556061259538e-15 -0.7933533402911425 0.6087614290088416
outer loop
vertex 131.53496537617127 -299.57093016575834 12.252157240145392
vertex 128.53496537617127 -299.8086224483903 11.94239062649098
vertex 131.53496537617127 -299.8086224483903 11.942390626490946
endloop
endfacet
facet normal 6.871556061259538e-15 -0.7933533402911425 0.6087614290088416
outer loop
vertex 128.53496537617127 -299.8086224483903 11.94239062649098
vertex 131.53496537617127 -299.57093016575834 12.252157240145392
vertex 128.53496537617127 -299.57093016575834 12.252157240145426
endloop
endfacet
facet normal -1.4733490076118222e-15 0.9914448613738162 -0.13052619222000914
outer loop
vertex 128.53496537617127 -302.3619173416096 13.000000000000396
vertex 131.53496537617127 -302.3109530933941 13.387111897985351
vertex 131.53496537617127 -302.3619173416096 13.000000000000362
endloop
endfacet
facet normal -1.4733490076118222e-15 0.9914448613738162 -0.13052619222000914
outer loop
vertex 131.53496537617127 -302.3109530933941 13.387111897985351
vertex 128.53496537617127 -302.3619173416096 13.000000000000396
vertex 128.53496537617127 -302.3109530933941 13.387111897985385
endloop
endfacet
facet normal 1.087946459389659e-14 -0.26652487414152254 0.9638280404013185
outer loop
vertex 131.53496537617113 -248.65916924893398 11.518716683160967
vertex 128.53496537617113 -248.28284040142356 11.622781925625592
vertex 128.53496537617113 -248.65916924893398 11.518716683161001
endloop
endfacet
facet normal 1.087946459389659e-14 -0.26652487414152254 0.9638280404013185
outer loop
vertex 128.53496537617113 -248.28284040142356 11.622781925625592
vertex 131.53496537617113 -248.65916924893398 11.518716683160967
vertex 131.53496537617113 -248.28284040142356 11.622781925625558
endloop
endfacet
facet normal 4.319640722791884e-15 -0.9238795325113088 0.38268343236503666
outer loop
vertex 131.53496537617127 -299.4215105504053 12.612888102015377
vertex 128.53496537617127 -299.57093016575834 12.252157240145426
vertex 131.53496537617127 -299.57093016575834 12.252157240145392
endloop
endfacet
facet normal 4.319640722791884e-15 -0.9238795325113088 0.38268343236503666
outer loop
vertex 128.53496537617127 -299.57093016575834 12.252157240145426
vertex 131.53496537617127 -299.4215105504053 12.612888102015377
vertex 128.53496537617127 -299.4215105504053 12.612888102015411
endloop
endfacet
facet normal 1.0428535217544855e-14 -0.38268343236506347 0.9238795325112977
outer loop
vertex 131.53496537617127 -300.47911992391477 11.555278728505952
vertex 128.53496537617127 -300.11838906204474 11.704698343859063
vertex 128.53496537617127 -300.47911992391477 11.555278728505986
endloop
endfacet
facet normal 1.0428535217544855e-14 -0.38268343236506347 0.9238795325112977
outer loop
vertex 128.53496537617127 -300.11838906204474 11.704698343859063
vertex 131.53496537617127 -300.47911992391477 11.555278728505952
vertex 131.53496537617127 -300.11838906204474 11.704698343859029
endloop
endfacet
facet normal 5.565633514899168e-15 -0.8699908891260197 0.4930677974048983
outer loop
vertex 131.53496537617113 -247.47987155283195 12.438679789942022
vertex 128.53496537617113 -247.67239099423 12.098989871278821
vertex 131.53496537617113 -247.67239099423 12.098989871278787
endloop
endfacet
facet normal 5.565633514899168e-15 -0.8699908891260197 0.4930677974048983
outer loop
vertex 128.53496537617113 -247.67239099423 12.098989871278821
vertex 131.53496537617113 -247.47987155283195 12.438679789942022
vertex 128.53496537617113 -247.47987155283195 12.438679789942055
endloop
endfacet
facet normal -4.3196407227934574e-15 0.923879532511251 -0.38268343236517616
outer loop
vertex 128.53496537617127 -302.3109530933941 13.387111897985385
vertex 131.53496537617127 -302.161533478041 13.747842759855294
vertex 131.53496537617127 -302.3109530933941 13.387111897985351
endloop
endfacet
facet normal -4.3196407227934574e-15 0.923879532511251 -0.38268343236517616
outer loop
vertex 131.53496537617127 -302.161533478041 13.747842759855294
vertex 128.53496537617127 -302.3109530933941 13.387111897985385
vertex 128.53496537617127 -302.161533478041 13.747842759855327
endloop
endfacet
facet normal 1.4733490076131248e-15 0.9914448613738008 0.13052619222012457
outer loop
vertex 128.53496537617127 -302.31095309339406 12.612888102015413
vertex 131.53496537617127 -302.3619173416096 13.000000000000362
vertex 131.53496537617127 -302.31095309339406 12.61288810201538
endloop
endfacet
facet normal 1.4733490076131248e-15 0.9914448613738008 0.13052619222012457
outer loop
vertex 131.53496537617127 -302.3619173416096 13.000000000000362
vertex 128.53496537617127 -302.31095309339406 12.612888102015413
vertex 128.53496537617127 -302.3619173416096 13.000000000000396
endloop
endfacet
facet normal 1.1191196784050637e-14 0.13052619222006667 0.9914448613738086
outer loop
vertex 131.53496537617127 -301.25334371988464 11.555278728505952
vertex 128.53496537617127 -300.86623182189965 11.504314480290459
vertex 128.53496537617127 -301.25334371988464 11.555278728505986
endloop
endfacet
facet normal 1.1191196784050637e-14 0.13052619222006667 0.9914448613738086
outer loop
vertex 128.53496537617127 -300.86623182189965 11.504314480290459
vertex 131.53496537617127 -301.25334371988464 11.555278728505952
vertex 131.53496537617127 -300.86623182189965 11.504314480290423
endloop
endfacet
facet normal -6.871556061258384e-15 0.7933533402912212 -0.6087614290087392
outer loop
vertex 128.53496537617127 -302.161533478041 13.747842759855327
vertex 131.53496537617127 -301.92384119540907 14.057609373509761
vertex 131.53496537617127 -302.161533478041 13.747842759855294
endloop
endfacet
facet normal -6.871556061258384e-15 0.7933533402912212 -0.6087614290087392
outer loop
vertex 131.53496537617127 -301.92384119540907 14.057609373509761
vertex 128.53496537617127 -302.161533478041 13.747842759855327
vertex 128.53496537617127 -301.92384119540907 14.057609373509795
endloop
endfacet
facet normal -8.045143911413694e-15 -0.7014371307966437 -0.7127313319475805
outer loop
vertex 131.53496537617113 -247.6869341257978 13.919963106781438
vertex 128.53496537617113 -247.96522169317822 14.1938408276701
vertex 128.53496537617113 -247.6869341257978 13.919963106781472
endloop
endfacet
facet normal -8.045143911413694e-15 -0.7014371307966437 -0.7127313319475805
outer loop
vertex 128.53496537617113 -247.96522169317822 14.1938408276701
vertex 131.53496537617113 -247.6869341257978 13.919963106781438
vertex 131.53496537617113 -247.96522169317822 14.193840827670064
endloop
endfacet
facet normal -8.955186209932452e-15 0.6087614290087181 -0.7933533402912372
outer loop
vertex 131.53496537617127 -301.6140745817546 14.295301656141671
vertex 128.53496537617127 -301.92384119540907 14.057609373509795
vertex 128.53496537617127 -301.6140745817546 14.295301656141705
endloop
endfacet
facet normal -8.955186209932452e-15 0.6087614290087181 -0.7933533402912372
outer loop
vertex 128.53496537617127 -301.92384119540907 14.057609373509795
vertex 131.53496537617127 -301.6140745817546 14.295301656141671
vertex 131.53496537617127 -301.92384119540907 14.057609373509761
endloop
endfacet
facet normal 8.955186209932126e-15 0.6087614290087557 0.7933533402912082
outer loop
vertex 131.53496537617127 -301.92384119540907 11.942390626490925
vertex 128.53496537617127 -301.61407458175466 11.70469834385906
vertex 128.53496537617127 -301.92384119540907 11.942390626490958
endloop
endfacet
facet normal 8.955186209932126e-15 0.6087614290087557 0.7933533402912082
outer loop
vertex 128.53496537617127 -301.61407458175466 11.70469834385906
vertex 131.53496537617127 -301.92384119540907 11.942390626490925
vertex 131.53496537617127 -301.61407458175466 11.704698343859027
endloop
endfacet
facet normal -5.721771695351078e-15 -0.862004682903833 -0.5069003123414529
outer loop
vertex 131.53496537617113 -247.6869341257978 13.919963106781438
vertex 128.53496537617113 -247.48901374752504 13.583391420476628
vertex 131.53496537617113 -247.48901374752504 13.583391420476595
endloop
endfacet
facet normal -5.721771695351078e-15 -0.862004682903833 -0.5069003123414529
outer loop
vertex 128.53496537617113 -247.48901374752504 13.583391420476628
vertex 131.53496537617113 -247.6869341257978 13.919963106781438
vertex 128.53496537617113 -247.6869341257978 13.919963106781472
endloop
endfacet
facet normal -3.0084701939228946e-15 -0.9638280404013428 -0.2665248741414342
outer loop
vertex 131.53496537617113 -247.48901374752504 13.583391420476595
vertex 128.53496537617113 -247.38494850506046 13.20706257296621
vertex 131.53496537617113 -247.38494850506046 13.207062572966176
endloop
endfacet
facet normal -3.0084701939228946e-15 -0.9638280404013428 -0.2665248741414342
outer loop
vertex 128.53496537617113 -247.38494850506046 13.20706257296621
vertex 131.53496537617113 -247.48901374752504 13.583391420476595
vertex 128.53496537617113 -247.48901374752504 13.583391420476628
endloop
endfacet
facet normal 4.31964072279184e-15 0.9238795325113104 0.3826834323650328
outer loop
vertex 128.53496537617127 -302.161533478041 12.252157240145422
vertex 131.53496537617127 -302.31095309339406 12.61288810201538
vertex 131.53496537617127 -302.161533478041 12.252157240145388
endloop
endfacet
facet normal 4.31964072279184e-15 0.9238795325113104 0.3826834323650328
outer loop
vertex 131.53496537617127 -302.31095309339406 12.61288810201538
vertex 128.53496537617127 -302.161533478041 12.252157240145422
vertex 128.53496537617127 -302.31095309339406 12.612888102015413
endloop
endfacet
facet normal 1.4733490076132254e-15 -0.9914448613737996 0.13052619222013342
outer loop
vertex 131.53496537617127 -299.3705463021897 13.000000000000334
vertex 128.53496537617127 -299.4215105504053 12.612888102015411
vertex 131.53496537617127 -299.4215105504053 12.612888102015377
endloop
endfacet
facet normal 1.4733490076132254e-15 -0.9914448613737996 0.13052619222013342
outer loop
vertex 128.53496537617127 -299.4215105504053 12.612888102015411
vertex 131.53496537617127 -299.3705463021897 13.000000000000334
vertex 128.53496537617127 -299.3705463021897 13.000000000000368
endloop
endfacet
facet normal -9.820252865144477e-15 -0.493067797405143 -0.869990889125881
outer loop
vertex 131.53496537617113 -247.96522169317822 14.193840827670064
vertex 128.53496537617113 -248.3049116118415 14.386360269068287
vertex 128.53496537617113 -247.96522169317822 14.1938408276701
endloop
endfacet
facet normal -9.820252865144477e-15 -0.493067797405143 -0.869990889125881
outer loop
vertex 128.53496537617113 -248.3049116118415 14.386360269068287
vertex 131.53496537617113 -247.96522169317822 14.193840827670064
vertex 131.53496537617113 -248.3049116118415 14.386360269068254
endloop
endfacet
facet normal -6.871556061259559e-15 -0.7933533402911412 -0.6087614290088433
outer loop
vertex 131.53496537617127 -299.8086224483903 14.057609373509745
vertex 128.53496537617127 -299.57093016575834 13.747842759855335
vertex 131.53496537617127 -299.57093016575834 13.7478427598553
endloop
endfacet
facet normal -6.871556061259559e-15 -0.7933533402911412 -0.6087614290088433
outer loop
vertex 128.53496537617127 -299.57093016575834 13.747842759855335
vertex 131.53496537617127 -299.8086224483903 14.057609373509745
vertex 128.53496537617127 -299.8086224483903 14.057609373509779
endloop
endfacet
facet normal 8.955186209932336e-15 -0.6087614290087318 0.7933533402912267
outer loop
vertex 131.53496537617127 -300.11838906204474 11.704698343859029
vertex 128.53496537617127 -299.8086224483903 11.94239062649098
vertex 128.53496537617127 -300.11838906204474 11.704698343859063
endloop
endfacet
facet normal 8.955186209932336e-15 -0.6087614290087318 0.7933533402912267
outer loop
vertex 128.53496537617127 -299.8086224483903 11.94239062649098
vertex 131.53496537617127 -300.11838906204474 11.704698343859029
vertex 131.53496537617127 -299.8086224483903 11.942390626490946
endloop
endfacet
facet normal -1.4733490076142805e-15 -0.9914448613737875 -0.13052619222022696
outer loop
vertex 131.53496537617127 -299.4215105504053 13.387111897985351
vertex 128.53496537617127 -299.3705463021897 13.000000000000368
vertex 131.53496537617127 -299.3705463021897 13.000000000000334
endloop
endfacet
facet normal -1.4733490076142805e-15 -0.9914448613737875 -0.13052619222022696
outer loop
vertex 128.53496537617127 -299.3705463021897 13.000000000000368
vertex 131.53496537617127 -299.4215105504053 13.387111897985351
vertex 128.53496537617127 -299.4215105504053 13.387111897985385
endloop
endfacet
facet normal 1.119119678405059e-14 -0.13052619222009654 0.9914448613738045
outer loop
vertex 131.53496537617127 -300.86623182189965 11.504314480290423
vertex 128.53496537617127 -300.47911992391477 11.555278728505986
vertex 128.53496537617127 -300.86623182189965 11.504314480290459
endloop
endfacet
facet normal 1.119119678405059e-14 -0.13052619222009654 0.9914448613738045
outer loop
vertex 128.53496537617127 -300.47911992391477 11.555278728505986
vertex 131.53496537617127 -300.86623182189965 11.504314480290423
vertex 131.53496537617127 -300.47911992391477 11.555278728505952
endloop
endfacet
facet normal -1.0428535217544375e-14 -0.38268343236516594 -0.9238795325112552
outer loop
vertex 131.53496537617127 -300.1183890620448 14.295301656141671
vertex 128.53496537617127 -300.47911992391477 14.44472127149481
vertex 128.53496537617127 -300.1183890620448 14.295301656141705
endloop
endfacet
facet normal -1.0428535217544375e-14 -0.38268343236516594 -0.9238795325112552
outer loop
vertex 128.53496537617127 -300.47911992391477 14.44472127149481
vertex 131.53496537617127 -300.1183890620448 14.295301656141671
vertex 131.53496537617127 -300.47911992391477 14.444721271494776
endloop
endfacet
facet normal -9.014642051472798e-17 -0.9999681097465942 -0.00798620622219284
outer loop
vertex 131.53496537617113 -247.38494850506046 13.207062572966176
vertex 128.53496537617113 -247.38472238585027 13.178749755476026
vertex 131.53496537617113 -247.38472238585027 13.178749755475993
endloop
endfacet
facet normal -9.014642051472798e-17 -0.9999681097465942 -0.00798620622219284
outer loop
vertex 128.53496537617113 -247.38472238585027 13.178749755476026
vertex 131.53496537617113 -247.38494850506046 13.207062572966176
vertex 128.53496537617113 -247.38494850506046 13.20706257296621
endloop
endfacet
facet normal -9.014642051610578e-17 -0.9999681097465932 -0.007986206222314898
outer loop
vertex 131.53496537617113 -247.38472238585027 13.178749755475993
vertex 128.53496537617113 -247.38183027270196 12.816622753295244
vertex 131.53496537617113 -247.38183027270196 12.816622753295208
endloop
endfacet
facet normal -9.014642051610578e-17 -0.9999681097465932 -0.007986206222314898
outer loop
vertex 128.53496537617113 -247.38183027270196 12.816622753295244
vertex 131.53496537617113 -247.38472238585027 13.178749755475993
vertex 128.53496537617113 -247.38472238585027 13.178749755476026
endloop
endfacet
facet normal 1.0428535217544883e-14 0.38268343236505725 0.9238795325113002
outer loop
vertex 131.53496537617127 -301.61407458175466 11.704698343859027
vertex 128.53496537617127 -301.25334371988464 11.555278728505986
vertex 128.53496537617127 -301.61407458175466 11.70469834385906
endloop
endfacet
facet normal 1.0428535217544883e-14 0.38268343236505725 0.9238795325113002
outer loop
vertex 128.53496537617127 -301.25334371988464 11.555278728505986
vertex 131.53496537617127 -301.61407458175466 11.704698343859027
vertex 131.53496537617127 -301.25334371988464 11.555278728505952
endloop
endfacet
facet normal 2.8343206824853916e-15 -0.9679620049379973 0.25109670845395915
outer loop
vertex 131.53496537617113 -247.38183027270196 12.816622753295208
vertex 128.53496537617113 -247.47987155283195 12.438679789942055
vertex 131.53496537617113 -247.47987155283195 12.438679789942022
endloop
endfacet
facet normal 2.8343206824853916e-15 -0.9679620049379973 0.25109670845395915
outer loop
vertex 128.53496537617113 -247.47987155283195 12.438679789942055
vertex 131.53496537617113 -247.38183027270196 12.816622753295208
vertex 128.53496537617113 -247.38183027270196 12.816622753295244
endloop
endfacet
facet normal 9.730106444631703e-15 -0.5069003123414046 0.8620046829038615
outer loop
vertex 131.53496537617113 -248.28284040142356 11.622781925625558
vertex 128.53496537617113 -247.94626871511872 11.820702303898322
vertex 128.53496537617113 -248.28284040142356 11.622781925625592
endloop
endfacet
facet normal 9.730106444631703e-15 -0.5069003123414046 0.8620046829038615
outer loop
vertex 128.53496537617113 -247.94626871511872 11.820702303898322
vertex 131.53496537617113 -248.28284040142356 11.622781925625558
vertex 131.53496537617113 -247.94626871511872 11.820702303898289
endloop
endfacet
facet normal 6.871556061258442e-15 0.7933533402912171 0.6087614290087444
outer loop
vertex 128.53496537617127 -301.92384119540907 11.942390626490958
vertex 131.53496537617127 -302.161533478041 12.252157240145388
vertex 131.53496537617127 -301.92384119540907 11.942390626490925
endloop
endfacet
facet normal 6.871556061258442e-15 0.7933533402912171 0.6087614290087444
outer loop
vertex 131.53496537617127 -302.161533478041 12.252157240145388
vertex 128.53496537617127 -301.92384119540907 11.942390626490958
vertex 128.53496537617127 -302.161533478041 12.252157240145422
endloop
endfacet
facet normal -1.0428535217544432e-14 0.38268343236515356 -0.9238795325112603
outer loop
vertex 131.53496537617127 -301.25334371988464 14.44472127149477
vertex 128.53496537617127 -301.6140745817546 14.295301656141705
vertex 128.53496537617127 -301.25334371988464 14.444721271494803
endloop
endfacet
facet normal -1.0428535217544432e-14 0.38268343236515356 -0.9238795325112603
outer loop
vertex 128.53496537617127 -301.6140745817546 14.295301656141705
vertex 131.53496537617127 -301.25334371988464 14.44472127149477
vertex 131.53496537617127 -301.6140745817546 14.295301656141671
endloop
endfacet
facet normal -1.1191196784050756e-14 0.13052619221998502 -0.9914448613738192
outer loop
vertex 131.53496537617127 -300.86623182189965 14.495685519710266
vertex 128.53496537617127 -301.25334371988464 14.444721271494803
vertex 128.53496537617127 -300.86623182189965 14.4956855197103
endloop
endfacet
facet normal -1.1191196784050756e-14 0.13052619221998502 -0.9914448613738192
outer loop
vertex 128.53496537617127 -301.25334371988464 14.444721271494803
vertex 131.53496537617127 -300.86623182189965 14.495685519710266
vertex 131.53496537617127 -301.25334371988464 14.44472127149477
endloop
endfacet
facet normal -1.1191196784050734e-14 -0.13052619222000073 -0.9914448613738173
outer loop
vertex 131.53496537617127 -300.47911992391477 14.444721271494776
vertex 128.53496537617127 -300.86623182189965 14.4956855197103
vertex 128.53496537617127 -300.47911992391477 14.44472127149481
endloop
endfacet
facet normal -1.1191196784050734e-14 -0.13052619222000073 -0.9914448613738173
outer loop
vertex 128.53496537617127 -300.86623182189965 14.4956855197103
vertex 131.53496537617127 -300.47911992391477 14.444721271494776
vertex 131.53496537617127 -300.86623182189965 14.495685519710266
endloop
endfacet
endsolid diseños
